<?xml version="1.0" encoding="utf-8" standalone="no"?>
<!DOCTYPE svg PUBLIC "-//W3C//DTD SVG 1.1//EN"
  "http://www.w3.org/Graphics/SVG/1.1/DTD/svg11.dtd">
<!-- Created with matplotlib (http://matplotlib.org/) -->
<svg height="507.858125pt" version="1.1" viewBox="0 0 422.414034 507.858125" width="422.414034pt" xmlns="http://www.w3.org/2000/svg" xmlns:xlink="http://www.w3.org/1999/xlink">
 <defs>
  <style type="text/css">
*{stroke-linecap:butt;stroke-linejoin:round;}
  </style>
 </defs>
 <g id="figure_1">
  <g id="patch_1">
   <path d="M 0 507.858125 
L 422.414034 507.858125 
L 422.414034 0 
L 0 0 
z
" style="fill:#ffffff;"/>
  </g>
  <g id="axes_1">
   <g id="patch_2">
    <path d="M 3.5 504.358125 
L 418.914034 504.358125 
L 418.914034 15.118125 
L 3.5 15.118125 
z
" style="fill:#ffffff;"/>
   </g>
   <g id="line2d_1">
    <path clip-path="url(#p5b5a572160)" d="M 118.587952 61.759604 
L 120.160229 103.773008 
L 125.879468 97.609061 
" style="fill:none;stroke:#1f77b4;stroke-linecap:square;stroke-width:1.5;"/>
   </g>
   <g id="line2d_2">
    <path clip-path="url(#p5b5a572160)" d="M 119.909425 115.621093 
L 116.330715 158.475516 
L 122.897351 152.921092 
" style="fill:none;stroke:#1f77b4;stroke-linecap:square;stroke-width:1.5;"/>
   </g>
   <g id="line2d_3">
    <path clip-path="url(#p5b5a572160)" d="M 340.602425 430.477103 
L 378.890398 448.059693 
L 375.962215 440.158403 
" style="fill:none;stroke:#1f77b4;stroke-linecap:square;stroke-width:1.5;"/>
   </g>
   <g id="line2d_4">
    <path clip-path="url(#p5b5a572160)" d="M 114.114646 170.493289 
L 99.964809 213.864188 
L 108.099469 209.731706 
" style="fill:none;stroke:#1f77b4;stroke-linecap:square;stroke-width:1.5;"/>
   </g>
   <g id="line2d_5">
    <path clip-path="url(#p5b5a572160)" d="M 91.692412 219.795953 
L 44.621503 218.920745 
L 51.154562 225.70135 
" style="fill:none;stroke:#1f77b4;stroke-linecap:square;stroke-width:1.5;"/>
   </g>
   <g id="line2d_6">
    <path clip-path="url(#p5b5a572160)" d="M 101.127836 225.492385 
L 124.581892 265.230207 
L 126.884764 256.293526 
" style="fill:none;stroke:#1f77b4;stroke-linecap:square;stroke-width:1.5;"/>
   </g>
   <g id="line2d_7">
    <path clip-path="url(#p5b5a572160)" d="M 128.696395 277.090401 
L 138.158367 322.31727 
L 143.216287 314.5831 
" style="fill:none;stroke:#1f77b4;stroke-linecap:square;stroke-width:1.5;"/>
   </g>
   <g id="line2d_8">
    <path clip-path="url(#p5b5a572160)" d="M 133.81188 331.984315 
L 94.536441 359.13537 
L 103.930566 360.850017 
" style="fill:none;stroke:#1f77b4;stroke-linecap:square;stroke-width:1.5;"/>
   </g>
   <g id="line2d_9">
    <path clip-path="url(#p5b5a572160)" d="M 144.749455 331.852758 
L 183.057758 357.95136 
L 181.331045 348.842848 
" style="fill:none;stroke:#1f77b4;stroke-linecap:square;stroke-width:1.5;"/>
   </g>
   <g id="line2d_10">
    <path clip-path="url(#p5b5a572160)" d="M 192.086753 366.336459 
L 221.05198 402.360218 
L 222.050207 393.169387 
" style="fill:none;stroke:#1f77b4;stroke-linecap:square;stroke-width:1.5;"/>
   </g>
   <g id="line2d_11">
    <path clip-path="url(#p5b5a572160)" d="M 222.521587 413.589348 
L 205.313213 457.481769 
L 213.95417 453.708075 
" style="fill:none;stroke:#1f77b4;stroke-linecap:square;stroke-width:1.5;"/>
   </g>
   <g id="line2d_12">
    <path clip-path="url(#p5b5a572160)" d="M 230.972509 407.92205 
L 276.413089 411.434515 
L 270.483558 404.511509 
" style="fill:none;stroke:#1f77b4;stroke-linecap:square;stroke-width:1.5;"/>
   </g>
   <g id="line2d_13">
    <path clip-path="url(#p5b5a572160)" d="M 288.457174 413.514144 
L 329.452416 426.638709 
L 325.510907 418.985012 
" style="fill:none;stroke:#1f77b4;stroke-linecap:square;stroke-width:1.5;"/>
   </g>
   <g id="patch_3">
    <path d="M 3.5 504.358125 
L 3.5 15.118125 
" style="fill:none;stroke:#000000;stroke-linecap:square;stroke-linejoin:miter;stroke-width:0.8;"/>
   </g>
   <g id="patch_4">
    <path d="M 418.914034 504.358125 
L 418.914034 15.118125 
" style="fill:none;stroke:#000000;stroke-linecap:square;stroke-linejoin:miter;stroke-width:0.8;"/>
   </g>
   <g id="patch_5">
    <path d="M 3.5 504.358125 
L 418.914034 504.358125 
" style="fill:none;stroke:#000000;stroke-linecap:square;stroke-linejoin:miter;stroke-width:0.8;"/>
   </g>
   <g id="patch_6">
    <path d="M 3.5 15.118125 
L 418.914034 15.118125 
" style="fill:none;stroke:#000000;stroke-linecap:square;stroke-linejoin:miter;stroke-width:0.8;"/>
   </g>
   <g id="text_1">
    <!-- $\mathbf{SS}: S$ -->
    <defs>
     <path d="M 25.40625 43.46875 
C 15.5 45.625 15.203125 52.75 15.203125 54.140625 
C 15.203125 59.171875 18.5 65.03125 28.203125 65.03125 
C 37.90625 65.03125 46.59375 60.359375 48.703125 47.34375 
C 49 45.25 49 45.25 50.90625 45.25 
C 53 45.25 53 45.546875 53 47.8125 
L 53 66.4375 
C 53 68.3125 53 69.015625 51.5 69.015625 
C 50.796875 69.015625 50.5 68.921875 49.59375 67.921875 
L 45.296875 63.046875 
C 42.796875 65.140625 37.796875 69 28.09375 69 
C 13.796875 69 6.203125 60.09375 6.203125 49.3125 
C 6.203125 42.6875 9.796875 38.03125 11.203125 36.640625 
C 16.40625 31.5 19.203125 30.90625 29.59375 28.625 
C 39.59375 26.453125 40.796875 26.25 43 24.1875 
C 44.296875 22.890625 47.203125 20.125 47.203125 15.078125 
C 47.203125 10.8125 45.09375 3 33.90625 3 
C 25.09375 3 11.203125 5.96875 10.40625 20.421875 
C 10.296875 22.203125 10.296875 22.5 8.296875 22.5 
C 6.203125 22.5 6.203125 22.203125 6.203125 19.921875 
L 6.203125 1.296875 
C 6.203125 -0.59375 6.203125 -1.28125 7.703125 -1.28125 
C 8.40625 -1.28125 8.5 -1.1875 9.5 -0.296875 
C 10.59375 0.796875 11.5 2.09375 14 4.578125 
C 19.796875 0.015625 28 -1.265625 34 -1.265625 
C 49.59375 -1.265625 56.203125 9.21875 56.203125 19.71875 
C 56.203125 29 50 37.90625 39.09375 40.375 
z
" id="CMBX12-83"/>
     <path d="M 16.59375 38.921875 
C 16.59375 41.40625 14.59375 43 12.5 43 
C 10.5 43 8.40625 41.40625 8.40625 38.921875 
C 8.40625 36.4375 10.40625 34.84375 12.5 34.84375 
C 14.5 34.84375 16.59375 36.4375 16.59375 38.921875 
z
M 16.59375 4.078125 
C 16.59375 6.5625 14.59375 8.15625 12.5 8.15625 
C 10.5 8.15625 8.40625 6.5625 8.40625 4.078125 
C 8.40625 1.59375 10.40625 0 12.5 0 
C 14.5 0 16.59375 1.59375 16.59375 4.078125 
z
" id="CMR17-58"/>
     <path d="M 63.5 69.109375 
C 63.5 70 62.796875 70 62.59375 70 
C 62.203125 70 62.09375 69.90625 60.90625 68.40625 
C 60.296875 67.703125 56.203125 62.515625 56.09375 62.421875 
C 52.796875 68.90625 46.203125 70 42 70 
C 29.296875 70 17.796875 58.484375 17.796875 47.265625 
C 17.796875 39.828125 22.296875 35.453125 27.203125 33.765625 
C 28.296875 33.359375 34.203125 31.765625 37.203125 31.078125 
C 42.296875 29.6875 43.59375 29.296875 45.703125 27.109375 
C 46.09375 26.609375 48.09375 24.328125 48.09375 19.65625 
C 48.09375 10.421875 39.5 0.890625 29.5 0.890625 
C 21.296875 0.890625 12.203125 4.375 12.203125 15.484375 
C 12.203125 17.375 12.59375 19.765625 12.90625 20.75 
C 12.90625 21.0625 13 21.53125 13 21.734375 
C 13 22.140625 12.796875 22.640625 12 22.640625 
C 11.09375 22.640625 11 22.4375 10.59375 20.75 
L 5.5 0.375 
C 5.5 0.28125 5.09375 -1 5.09375 -1.109375 
C 5.09375 -2 5.90625 -2 6.09375 -2 
C 6.5 -2 6.59375 -1.90625 7.796875 -0.40625 
L 12.40625 5.5625 
C 14.796875 1.96875 20 -2 29.296875 -2 
C 42.203125 -2 54 10.40625 54 22.8125 
C 54 27 53 30.671875 49.203125 34.328125 
C 47.09375 36.421875 45.296875 36.921875 36.09375 39.3125 
C 29.40625 41.09375 28.5 41.390625 26.703125 42.984375 
C 25 44.65625 23.703125 47.046875 23.703125 50.421875 
C 23.703125 58.765625 32.203125 67.3125 41.703125 67.3125 
C 51.5 67.3125 56.09375 61.34375 56.09375 51.921875 
C 56.09375 49.34375 55.59375 46.65625 55.59375 46.265625 
C 55.59375 45.359375 56.40625 45.359375 56.703125 45.359375 
C 57.59375 45.359375 57.703125 45.65625 58.09375 47.25 
z
" id="CMMI12-83"/>
    </defs>
    <g transform="translate(98.721418 59.75125)scale(0.14 -0.14)">
     <use transform="scale(0.996264)" xlink:href="#CMBX12-83"/>
     <use transform="translate(62.266501 0)scale(0.996264)" xlink:href="#CMBX12-83"/>
     <use transform="translate(152.20701 0)scale(0.996264)" xlink:href="#CMR17-58"/>
     <use transform="translate(204.752077 0)scale(0.996264)" xlink:href="#CMMI12-83"/>
    </g>
   </g>
   <g id="text_2">
    <!-- $\mathbf{SS}: P$ -->
    <defs>
     <path d="M 29.59375 31.609375 
L 46.40625 31.609375 
C 60.203125 31.609375 74 41.765625 74 53.140625 
C 74 60.90625 67.40625 68 54.796875 68 
L 23.90625 68 
C 22 68 21.09375 68 21.09375 66.109375 
C 21.09375 65.109375 22 65.109375 23.5 65.109375 
C 29.59375 65.109375 29.59375 64.3125 29.59375 63.21875 
C 29.59375 63.03125 29.59375 62.421875 29.203125 60.921875 
L 15.703125 7.375 
C 14.796875 3.890625 14.59375 2.890625 7.59375 2.890625 
C 5.703125 2.890625 4.703125 2.890625 4.703125 1.09375 
C 4.703125 0 5.59375 0 6.203125 0 
C 8.09375 0 10.09375 0 12 0 
L 23.703125 0 
C 25.59375 0 27.703125 0 29.59375 0 
C 30.40625 0 31.5 0 31.5 1.890625 
C 31.5 2.890625 30.59375 2.890625 29.09375 2.890625 
C 23.09375 2.890625 23 3.59375 23 4.578125 
C 23 5.078125 23.09375 5.765625 23.203125 6.265625 
z
M 36.796875 61.40625 
C 37.703125 65.109375 38.09375 65.109375 42 65.109375 
L 51.90625 65.109375 
C 59.40625 65.109375 65.59375 62.703125 65.59375 55.234375 
C 65.59375 52.640625 64.296875 44.171875 59.703125 39.59375 
C 58 37.796875 53.203125 34 44.09375 34 
L 30 34 
z
" id="CMMI12-80"/>
    </defs>
    <g transform="translate(364.836198 454.120642)scale(0.14 -0.14)">
     <use transform="scale(0.996264)" xlink:href="#CMBX12-83"/>
     <use transform="translate(62.266501 0)scale(0.996264)" xlink:href="#CMBX12-83"/>
     <use transform="translate(152.20701 0)scale(0.996264)" xlink:href="#CMR17-58"/>
     <use transform="translate(204.752077 0)scale(0.996264)" xlink:href="#CMMI12-80"/>
    </g>
   </g>
   <g id="text_3">
    <!-- $\mathbf{0}$ -->
    <defs>
     <path d="M 51.703125 31.84375 
C 51.703125 41.375 51.703125 65.28125 28.09375 65.28125 
C 4.40625 65.28125 4.40625 41.46875 4.40625 31.84375 
C 4.40625 22.3125 4.40625 -1 28 -1 
C 51.59375 -1 51.703125 22.015625 51.703125 31.84375 
z
M 28.09375 2.28125 
C 24.90625 2.28125 22.5 3.5625 20.5 5.65625 
C 18 8.140625 16.40625 9.703125 16.40625 33.03125 
C 16.40625 39.984375 16.40625 46.3125 17.203125 51.484375 
C 18.59375 61.3125 25.796875 62 28 62 
C 31.203125 62 37.40625 60.515625 38.796875 52.1875 
C 39.703125 47.109375 39.703125 39.078125 39.703125 33.03125 
C 39.703125 9.609375 38.203125 8.234375 35.203125 5.25 
C 33.203125 3.265625 30.5 2.28125 28.09375 2.28125 
z
" id="CMBX12-48"/>
    </defs>
    <g transform="translate(115.456764 113.507611)scale(0.14 -0.14)">
     <use transform="scale(0.996264)" xlink:href="#CMBX12-48"/>
    </g>
   </g>
   <g id="text_4">
    <!-- $\mathbf{0}$ -->
    <g transform="translate(330.296625 432.142405)scale(0.14 -0.14)">
     <use transform="scale(0.996264)" xlink:href="#CMBX12-48"/>
    </g>
   </g>
   <g id="text_5">
    <!-- $\mathbf{BG}: E1$ -->
    <defs>
     <path d="M 3.90625 68.28125 
L 3.90625 64 
L 14.5 64 
L 14.5 4.265625 
L 3.90625 4.265625 
L 3.90625 0 
L 49.09375 0 
C 65.59375 0 73.703125 8.828125 73.703125 18.34375 
C 73.703125 27.78125 65.40625 34.625 53.296875 35.515625 
C 67.703125 38.21875 70.5 46.40625 70.5 51.09375 
C 70.5 60.28125 62.09375 68.28125 46.09375 68.28125 
z
M 26.796875 37 
L 26.796875 64 
L 44.90625 64 
C 55.203125 64 57.296875 56.203125 57.296875 51.1875 
C 57.296875 44.1875 53.40625 37 41.703125 37 
z
M 26.796875 4.265625 
L 26.796875 33.71875 
L 46.703125 33.71875 
C 58.40625 33.71875 60.09375 23 60.09375 18.546875 
C 60.09375 12.296875 56.703125 4.265625 45.203125 4.265625 
z
" id="CMBX12-66"/>
     <path d="M 74.90625 22.828125 
L 82.703125 22.828125 
L 82.703125 27.09375 
C 80.296875 27 69.59375 27 66.40625 27 
C 60.296875 27 53.703125 27 47.59375 27 
L 47.59375 22.828125 
L 61.703125 22.828125 
L 61.703125 12.671875 
C 61.703125 10.578125 61.703125 7.78125 57.703125 5.28125 
C 55.703125 4 52.59375 3 48.40625 3 
C 42.703125 3 32.796875 4.390625 26.59375 11.609375 
C 22.703125 16.046875 20.296875 22.09375 20.296875 33.953125 
C 20.296875 44.15625 22 51.078125 26.5 56.3125 
C 32.90625 63.734375 42.90625 64.734375 47.703125 64.734375 
C 55.203125 64.734375 67.296875 60.578125 70.296875 43.25 
C 70.5 42.359375 71.40625 42.359375 72.59375 42.359375 
C 74.90625 42.359375 74.90625 42.5625 74.90625 44.9375 
L 74.90625 66.453125 
C 74.90625 68.734375 74.90625 69.03125 72.703125 69.03125 
L 65.203125 61.875 
C 59.59375 66.625 52.90625 69 45.5 69 
C 21.59375 69 6.203125 54.640625 6.203125 33.859375 
C 6.203125 13.46875 21.09375 -1.265625 45.59375 -1.265625 
C 52.296875 -1.265625 60.203125 0.21875 64.296875 5.484375 
C 67.703125 2.359375 73.40625 0 73.703125 0 
C 74.90625 0 74.90625 1 74.90625 2.578125 
z
" id="CMBX12-71"/>
     <path d="M 69.5 23.265625 
C 69.59375 23.5625 69.90625 24.28125 69.90625 24.671875 
C 69.90625 25.171875 69.5 25.671875 68.90625 25.671875 
C 68.5 25.671875 68.296875 25.578125 68 25.265625 
C 67.796875 25.171875 67.796875 24.96875 66.90625 22.953125 
C 61 8.90625 56.703125 2.890625 40.703125 2.890625 
L 26.09375 2.890625 
C 24.703125 2.890625 24.5 2.890625 23.90625 3 
C 22.796875 3.09375 22.703125 3.296875 22.703125 4.09375 
C 22.703125 4.796875 22.90625 5.390625 23.09375 6.296875 
L 30 34 
L 39.90625 34 
C 47.703125 34 48.296875 32.28125 48.296875 29.28125 
C 48.296875 28.28125 48.296875 27.375 47.59375 24.375 
C 47.40625 23.96875 47.296875 23.5625 47.296875 23.265625 
C 47.296875 22.5625 47.796875 22.265625 48.40625 22.265625 
C 49.296875 22.265625 49.40625 22.953125 49.796875 24.359375 
L 55.5 47.53125 
C 55.5 48.015625 55.09375 48.515625 54.5 48.515625 
C 53.59375 48.515625 53.5 48.125 53.09375 46.71875 
C 51.09375 39.078125 49.09375 36.890625 40.203125 36.890625 
L 30.703125 36.890625 
L 36.90625 61.40625 
C 37.796875 64.90625 38 64.90625 42.09375 64.90625 
L 56.40625 64.90625 
C 68.703125 64.90625 71.203125 61.609375 71.203125 54.03125 
C 71.203125 53.921875 71.203125 51.140625 70.796875 47.84375 
C 70.703125 47.4375 70.59375 46.84375 70.59375 46.640625 
C 70.59375 45.84375 71.09375 45.546875 71.703125 45.546875 
C 72.40625 45.546875 72.796875 45.953125 73 47.734375 
L 75.09375 65.21875 
C 75.09375 65.546875 75.296875 66.609375 75.296875 66.828125 
C 75.296875 68 74.40625 68 72.59375 68 
L 23.796875 68 
C 21.90625 68 20.90625 68 20.90625 66.078125 
C 20.90625 64.90625 21.59375 64.90625 23.296875 64.90625 
C 29.5 64.90625 29.5 64.28125 29.5 63.3125 
C 29.5 62.8125 29.40625 62.40625 29.09375 61.3125 
L 15.59375 7.390625 
C 14.703125 3.890625 14.5 2.890625 7.5 2.890625 
C 5.59375 2.890625 4.59375 2.890625 4.59375 1.09375 
C 4.59375 0 5.203125 0 7.203125 0 
L 57.40625 0 
C 59.59375 0 59.703125 0.09375 60.40625 1.71875 
z
" id="CMMI12-69"/>
     <path d="M 26.59375 63.40625 
C 26.59375 65.5 26.5 65.5 25.09375 65.5 
C 21.203125 61.1875 15.296875 59.796875 9.703125 59.796875 
C 9.40625 59.796875 8.90625 59.796875 8.796875 59.5 
C 8.703125 59.296875 8.703125 59.09375 8.703125 57 
C 11.796875 57 17 57.59375 21 59.984375 
L 21 7.203125 
C 21 3.6875 20.796875 2.5 12.203125 2.5 
L 9.203125 2.5 
L 9.203125 0 
C 14 0 19 0 23.796875 0 
C 28.59375 0 33.59375 0 38.40625 0 
L 38.40625 2.5 
L 35.40625 2.5 
C 26.796875 2.5 26.59375 3.59375 26.59375 7.15625 
z
" id="CMR17-49"/>
    </defs>
    <g transform="translate(90.823376 168.315248)scale(0.14 -0.14)">
     <use transform="scale(0.996264)" xlink:href="#CMBX12-66"/>
     <use transform="translate(79.678136 0)scale(0.996264)" xlink:href="#CMBX12-71"/>
     <use transform="translate(195.447705 0)scale(0.996264)" xlink:href="#CMR17-58"/>
     <use transform="translate(247.992772 0)scale(0.996264)" xlink:href="#CMMI12-69"/>
     <use transform="translate(326.044408 0)scale(0.996264)" xlink:href="#CMR17-49"/>
    </g>
   </g>
   <g id="text_6">
    <!-- $\mathbf{C}: A1$ -->
    <defs>
     <path d="M 74.90625 66.4375 
C 74.90625 68.71875 74.90625 69.015625 72.703125 69.015625 
L 65.203125 61.859375 
C 59.59375 66.609375 52.90625 69 45.5 69 
C 21.59375 69 6.203125 54.640625 6.203125 33.859375 
C 6.203125 13.46875 21.09375 -1.265625 45.59375 -1.265625 
C 63.40625 -1.265625 74.90625 10.796875 74.90625 22.484375 
C 74.90625 24.171875 74.296875 24.171875 72.796875 24.171875 
C 71.796875 24.171875 70.796875 24.171875 70.703125 23.1875 
C 69.796875 8.15625 56.90625 3 47.90625 3 
C 41.40625 3 32.59375 4.796875 27 11.015625 
C 23.5 14.78125 20.296875 20.203125 20.296875 33.859375 
C 20.296875 43.5625 21.796875 50.78125 26.5 56.3125 
C 32.90625 63.734375 42.90625 64.734375 47.703125 64.734375 
C 55.203125 64.734375 67.296875 60.5625 70.296875 43.15625 
C 70.5 42.265625 71.40625 42.265625 72.59375 42.265625 
C 74.90625 42.265625 74.90625 42.46875 74.90625 44.84375 
z
" id="CMBX12-67"/>
     <path d="M 17 10.796875 
C 13.5 4.90625 10.09375 2.90625 5.296875 2.90625 
C 4.203125 2.8125 3.40625 2.8125 3.40625 0.90625 
C 3.40625 0.375 3.90625 0 4.59375 0 
C 6.40625 0 10.90625 0 12.703125 0 
C 15.59375 0 18.796875 0 21.59375 0 
C 22.203125 0 23.40625 0 23.40625 1.90625 
C 23.40625 2.8125 22.59375 2.90625 22 2.90625 
C 19.703125 2.90625 17.796875 3.6875 17.796875 6.0625 
C 17.796875 7.4375 18.40625 8.53125 19.703125 10.703125 
L 27.296875 23.109375 
L 52.796875 23.109375 
C 52.90625 22.234375 52.90625 21.453125 53 20.5625 
C 53.296875 18 54.5 7.734375 54.5 5.875 
C 54.5 2.90625 49.40625 2.90625 47.796875 2.90625 
C 46.703125 2.90625 45.59375 2.90625 45.59375 1.09375 
C 45.59375 0 46.5 0 47.09375 0 
C 48.796875 0 50.796875 0 52.5 0 
L 58.203125 0 
C 64.296875 0 68.703125 0 68.796875 0 
C 69.5 0 70.59375 0 70.59375 1.90625 
C 70.59375 2.90625 69.703125 2.90625 68.203125 2.90625 
C 62.703125 2.90625 62.59375 3.8125 62.296875 6.78125 
L 56.203125 68.8125 
C 56 70.796875 55.59375 71 54.5 71 
C 53.5 71 52.90625 70.796875 52 69.296875 
z
M 29 26 
L 49.09375 59.671875 
L 52.5 26 
z
" id="CMMI12-65"/>
    </defs>
    <g transform="translate(18.587836 222.67447)scale(0.14 -0.14)">
     <use transform="scale(0.996264)" xlink:href="#CMBX12-67"/>
     <use transform="translate(108.62046 0)scale(0.996264)" xlink:href="#CMR17-58"/>
     <use transform="translate(161.165527 0)scale(0.996264)" xlink:href="#CMMI12-65"/>
     <use transform="translate(234.293412 0)scale(0.996264)" xlink:href="#CMR17-49"/>
    </g>
   </g>
   <g id="text_7">
    <!-- $\mathbf{0}$ -->
    <g transform="translate(93.296079 223.768479)scale(0.14 -0.14)">
     <use transform="scale(0.996264)" xlink:href="#CMBX12-48"/>
    </g>
   </g>
   <g id="text_8">
    <!-- $\mathbf{BG}: E1$ -->
    <g transform="translate(102.453649 274.680364)scale(0.14 -0.14)">
     <use transform="scale(0.996264)" xlink:href="#CMBX12-66"/>
     <use transform="translate(79.678136 0)scale(0.996264)" xlink:href="#CMBX12-71"/>
     <use transform="translate(195.447705 0)scale(0.996264)" xlink:href="#CMR17-58"/>
     <use transform="translate(247.992772 0)scale(0.996264)" xlink:href="#CMMI12-69"/>
     <use transform="translate(326.044408 0)scale(0.996264)" xlink:href="#CMR17-49"/>
    </g>
   </g>
   <g id="text_9">
    <!-- $\mathbf{C}: A2$ -->
    <defs>
     <path d="M 41.703125 15.453125 
L 39.90625 15.453125 
C 38.90625 8.375 38.09375 7.171875 37.703125 6.5625 
C 37.203125 5.765625 30 5.765625 28.59375 5.765625 
L 9.40625 5.765625 
C 13 9.671875 20 16.75 28.5 24.953125 
C 34.59375 30.734375 41.703125 37.53125 41.703125 47.421875 
C 41.703125 59.21875 32.296875 66 21.796875 66 
C 10.796875 66 4.09375 56.3125 4.09375 47.34375 
C 4.09375 43.4375 7 42.9375 8.203125 42.9375 
C 9.203125 42.9375 12.203125 43.546875 12.203125 47.03125 
C 12.203125 50.109375 9.59375 51 8.203125 51 
C 7.59375 51 7 50.90625 6.59375 50.703125 
C 8.5 59.21875 14.296875 63.40625 20.40625 63.40625 
C 29.09375 63.40625 34.796875 56.515625 34.796875 47.421875 
C 34.796875 38.734375 29.703125 31.25 24 24.75 
L 4.09375 2.28125 
L 4.09375 0 
L 39.296875 0 
z
" id="CMR17-50"/>
    </defs>
    <g transform="translate(69.477207 366.392377)scale(0.14 -0.14)">
     <use transform="scale(0.996264)" xlink:href="#CMBX12-67"/>
     <use transform="translate(108.62046 0)scale(0.996264)" xlink:href="#CMR17-58"/>
     <use transform="translate(161.165527 0)scale(0.996264)" xlink:href="#CMMI12-65"/>
     <use transform="translate(234.293412 0)scale(0.996264)" xlink:href="#CMR17-50"/>
    </g>
   </g>
   <g id="text_10">
    <!-- $\mathbf{0}$ -->
    <g transform="translate(134.441113 332.453558)scale(0.14 -0.14)">
     <use transform="scale(0.996264)" xlink:href="#CMBX12-48"/>
    </g>
   </g>
   <g id="text_11">
    <!-- $\mathbf{BG}: E2$ -->
    <g transform="translate(163.406099 365.07681)scale(0.14 -0.14)">
     <use transform="scale(0.996264)" xlink:href="#CMBX12-66"/>
     <use transform="translate(79.678136 0)scale(0.996264)" xlink:href="#CMBX12-71"/>
     <use transform="translate(195.447705 0)scale(0.996264)" xlink:href="#CMR17-58"/>
     <use transform="translate(247.992772 0)scale(0.996264)" xlink:href="#CMMI12-69"/>
     <use transform="translate(326.044408 0)scale(0.996264)" xlink:href="#CMR17-50"/>
    </g>
   </g>
   <g id="text_12">
    <!-- $\mathbf{C}: A3$ -->
    <defs>
     <path d="M 22.09375 33.703125 
C 31 33.703125 34.90625 25.96875 34.90625 17.03125 
C 34.90625 5 28.5 0.390625 22.703125 0.390625 
C 17.40625 0.390625 8.796875 3.03125 6.09375 10.828125 
C 6.59375 10.625 7.09375 10.625 7.59375 10.625 
C 10 10.625 11.796875 12.21875 11.796875 14.8125 
C 11.796875 17.703125 9.59375 19 7.59375 19 
C 5.90625 19 3.296875 18.203125 3.296875 14.46875 
C 3.296875 5.234375 12.296875 -2 22.90625 -2 
C 34 -2 42.5 6.71875 42.5 16.953125 
C 42.5 26.671875 34.5 33.703125 25 34.796875 
C 32.59375 36.375 39.90625 43.0625 39.90625 52.015625 
C 39.90625 59.6875 32 65.296875 23 65.296875 
C 13.90625 65.296875 5.90625 59.828125 5.90625 52.015625 
C 5.90625 48.59375 8.5 48 9.796875 48 
C 11.90625 48 13.703125 49.296875 13.703125 51.890625 
C 13.703125 54.46875 11.90625 55.765625 9.796875 55.765625 
C 9.40625 55.765625 8.90625 55.765625 8.5 55.578125 
C 11.40625 61.859375 19.296875 63 22.796875 63 
C 26.296875 63 32.90625 61.328125 32.90625 51.875 
C 32.90625 49.109375 32.5 44.1875 29.09375 39.84375 
C 26.09375 36 22.703125 36 19.40625 35.6875 
C 18.90625 35.6875 16.59375 35.453125 16.203125 35.453125 
C 15.5 35.359375 15.09375 35.265625 15.09375 34.5 
C 15.09375 33.796875 15.203125 33.703125 17.203125 33.703125 
z
" id="CMR17-51"/>
    </defs>
    <g transform="translate(183.632166 467.45125)scale(0.14 -0.14)">
     <use transform="scale(0.996264)" xlink:href="#CMBX12-67"/>
     <use transform="translate(108.62046 0)scale(0.996264)" xlink:href="#CMR17-58"/>
     <use transform="translate(161.165527 0)scale(0.996264)" xlink:href="#CMMI12-65"/>
     <use transform="translate(234.293412 0)scale(0.996264)" xlink:href="#CMR17-51"/>
    </g>
   </g>
   <g id="text_13">
    <!-- $\mathbf{0}$ -->
    <g transform="translate(219.772633 411.346116)scale(0.14 -0.14)">
     <use transform="scale(0.996264)" xlink:href="#CMBX12-48"/>
    </g>
   </g>
   <g id="text_14">
    <!-- $\mathbf{BG}: E3$ -->
    <g transform="translate(257.652965 415.736698)scale(0.14 -0.14)">
     <use transform="scale(0.996264)" xlink:href="#CMBX12-66"/>
     <use transform="translate(79.678136 0)scale(0.996264)" xlink:href="#CMBX12-71"/>
     <use transform="translate(195.447705 0)scale(0.996264)" xlink:href="#CMR17-58"/>
     <use transform="translate(247.992772 0)scale(0.996264)" xlink:href="#CMMI12-69"/>
     <use transform="translate(326.044408 0)scale(0.996264)" xlink:href="#CMR17-51"/>
    </g>
   </g>
   <g id="text_15">
    <g clip-path="url(#p5b5a572160)">
     <!-- [S] -->
     <defs>
      <path d="M 8.59375 75.984375 
L 29.296875 75.984375 
L 29.296875 69 
L 17.578125 69 
L 17.578125 -6.203125 
L 29.296875 -6.203125 
L 29.296875 -13.1875 
L 8.59375 -13.1875 
z
" id="DejaVuSans-5b"/>
      <path d="M 53.515625 70.515625 
L 53.515625 60.890625 
Q 47.90625 63.578125 42.921875 64.890625 
Q 37.9375 66.21875 33.296875 66.21875 
Q 25.25 66.21875 20.875 63.09375 
Q 16.5 59.96875 16.5 54.203125 
Q 16.5 49.359375 19.40625 46.890625 
Q 22.3125 44.4375 30.421875 42.921875 
L 36.375 41.703125 
Q 47.40625 39.59375 52.65625 34.296875 
Q 57.90625 29 57.90625 20.125 
Q 57.90625 9.515625 50.796875 4.046875 
Q 43.703125 -1.421875 29.984375 -1.421875 
Q 24.8125 -1.421875 18.96875 -0.25 
Q 13.140625 0.921875 6.890625 3.21875 
L 6.890625 13.375 
Q 12.890625 10.015625 18.65625 8.296875 
Q 24.421875 6.59375 29.984375 6.59375 
Q 38.421875 6.59375 43.015625 9.90625 
Q 47.609375 13.234375 47.609375 19.390625 
Q 47.609375 24.75 44.3125 27.78125 
Q 41.015625 30.8125 33.5 32.328125 
L 27.484375 33.5 
Q 16.453125 35.6875 11.515625 40.375 
Q 6.59375 45.0625 6.59375 53.421875 
Q 6.59375 63.09375 13.40625 68.65625 
Q 20.21875 74.21875 32.171875 74.21875 
Q 37.3125 74.21875 42.625 73.28125 
Q 47.953125 72.359375 53.515625 70.515625 
z
" id="DejaVuSans-53"/>
      <path d="M 30.421875 75.984375 
L 30.421875 -13.1875 
L 9.71875 -13.1875 
L 9.71875 -6.203125 
L 21.390625 -6.203125 
L 21.390625 69 
L 9.71875 69 
L 9.71875 75.984375 
z
" id="DejaVuSans-5d"/>
     </defs>
     <g transform="translate(108.807594 161.752632)scale(0.1 -0.1)">
      <use xlink:href="#DejaVuSans-5b"/>
      <use x="39.013672" xlink:href="#DejaVuSans-53"/>
      <use x="102.490234" xlink:href="#DejaVuSans-5d"/>
     </g>
    </g>
   </g>
   <g id="text_16">
    <g clip-path="url(#p5b5a572160)">
     <!-- [P] -->
     <defs>
      <path d="M 19.671875 64.796875 
L 19.671875 37.40625 
L 32.078125 37.40625 
Q 38.96875 37.40625 42.71875 40.96875 
Q 46.484375 44.53125 46.484375 51.125 
Q 46.484375 57.671875 42.71875 61.234375 
Q 38.96875 64.796875 32.078125 64.796875 
z
M 9.8125 72.90625 
L 32.078125 72.90625 
Q 44.34375 72.90625 50.609375 67.359375 
Q 56.890625 61.8125 56.890625 51.125 
Q 56.890625 40.328125 50.609375 34.8125 
Q 44.34375 29.296875 32.078125 29.296875 
L 19.671875 29.296875 
L 19.671875 0 
L 9.8125 0 
z
" id="DejaVuSans-50"/>
     </defs>
     <g transform="translate(108.966969 172.670364)scale(0.1 -0.1)">
      <use xlink:href="#DejaVuSans-5b"/>
      <use x="39.013672" xlink:href="#DejaVuSans-50"/>
      <use x="99.316406" xlink:href="#DejaVuSans-5d"/>
     </g>
    </g>
   </g>
   <g id="text_17">
    <g clip-path="url(#p5b5a572160)">
     <!-- [S] -->
     <g transform="translate(120.437867 268.117748)scale(0.1 -0.1)">
      <use xlink:href="#DejaVuSans-5b"/>
      <use x="39.013672" xlink:href="#DejaVuSans-53"/>
      <use x="102.490234" xlink:href="#DejaVuSans-5d"/>
     </g>
    </g>
   </g>
   <g id="text_18">
    <g clip-path="url(#p5b5a572160)">
     <!-- [P] -->
     <g transform="translate(120.597242 279.03548)scale(0.1 -0.1)">
      <use xlink:href="#DejaVuSans-5b"/>
      <use x="39.013672" xlink:href="#DejaVuSans-50"/>
      <use x="99.316406" xlink:href="#DejaVuSans-5d"/>
     </g>
    </g>
   </g>
   <g id="text_19">
    <g clip-path="url(#p5b5a572160)">
     <!-- [S] -->
     <g transform="translate(173.694733 363.97306)scale(0.1 -0.1)">
      <use xlink:href="#DejaVuSans-5b"/>
      <use x="39.013672" xlink:href="#DejaVuSans-53"/>
      <use x="102.490234" xlink:href="#DejaVuSans-5d"/>
     </g>
    </g>
   </g>
   <g id="text_20">
    <g clip-path="url(#p5b5a572160)">
     <!-- [P] -->
     <g transform="translate(181.549693 369.431926)scale(0.1 -0.1)">
      <use xlink:href="#DejaVuSans-5b"/>
      <use x="39.013672" xlink:href="#DejaVuSans-50"/>
      <use x="99.316406" xlink:href="#DejaVuSans-5d"/>
     </g>
    </g>
   </g>
   <g id="text_21">
    <g clip-path="url(#p5b5a572160)">
     <!-- [S] -->
     <g transform="translate(267.941599 414.632948)scale(0.1 -0.1)">
      <use xlink:href="#DejaVuSans-5b"/>
      <use x="39.013672" xlink:href="#DejaVuSans-53"/>
      <use x="102.490234" xlink:href="#DejaVuSans-5d"/>
     </g>
    </g>
   </g>
   <g id="text_22">
    <g clip-path="url(#p5b5a572160)">
     <!-- [P] -->
     <g transform="translate(283.332768 414.632948)scale(0.1 -0.1)">
      <use xlink:href="#DejaVuSans-5b"/>
      <use x="39.013672" xlink:href="#DejaVuSans-50"/>
      <use x="99.316406" xlink:href="#DejaVuSans-5d"/>
     </g>
    </g>
   </g>
   <g id="text_23">
    <!-- 3 Step Chain -->
    <defs>
     <path d="M 40.578125 39.3125 
Q 47.65625 37.796875 51.625 33 
Q 55.609375 28.21875 55.609375 21.1875 
Q 55.609375 10.40625 48.1875 4.484375 
Q 40.765625 -1.421875 27.09375 -1.421875 
Q 22.515625 -1.421875 17.65625 -0.515625 
Q 12.796875 0.390625 7.625 2.203125 
L 7.625 11.71875 
Q 11.71875 9.328125 16.59375 8.109375 
Q 21.484375 6.890625 26.8125 6.890625 
Q 36.078125 6.890625 40.9375 10.546875 
Q 45.796875 14.203125 45.796875 21.1875 
Q 45.796875 27.640625 41.28125 31.265625 
Q 36.765625 34.90625 28.71875 34.90625 
L 20.21875 34.90625 
L 20.21875 43.015625 
L 29.109375 43.015625 
Q 36.375 43.015625 40.234375 45.921875 
Q 44.09375 48.828125 44.09375 54.296875 
Q 44.09375 59.90625 40.109375 62.90625 
Q 36.140625 65.921875 28.71875 65.921875 
Q 24.65625 65.921875 20.015625 65.03125 
Q 15.375 64.15625 9.8125 62.3125 
L 9.8125 71.09375 
Q 15.4375 72.65625 20.34375 73.4375 
Q 25.25 74.21875 29.59375 74.21875 
Q 40.828125 74.21875 47.359375 69.109375 
Q 53.90625 64.015625 53.90625 55.328125 
Q 53.90625 49.265625 50.4375 45.09375 
Q 46.96875 40.921875 40.578125 39.3125 
z
" id="DejaVuSans-33"/>
     <path id="DejaVuSans-20"/>
     <path d="M 18.3125 70.21875 
L 18.3125 54.6875 
L 36.8125 54.6875 
L 36.8125 47.703125 
L 18.3125 47.703125 
L 18.3125 18.015625 
Q 18.3125 11.328125 20.140625 9.421875 
Q 21.96875 7.515625 27.59375 7.515625 
L 36.8125 7.515625 
L 36.8125 0 
L 27.59375 0 
Q 17.1875 0 13.234375 3.875 
Q 9.28125 7.765625 9.28125 18.015625 
L 9.28125 47.703125 
L 2.6875 47.703125 
L 2.6875 54.6875 
L 9.28125 54.6875 
L 9.28125 70.21875 
z
" id="DejaVuSans-74"/>
     <path d="M 56.203125 29.59375 
L 56.203125 25.203125 
L 14.890625 25.203125 
Q 15.484375 15.921875 20.484375 11.0625 
Q 25.484375 6.203125 34.421875 6.203125 
Q 39.59375 6.203125 44.453125 7.46875 
Q 49.3125 8.734375 54.109375 11.28125 
L 54.109375 2.78125 
Q 49.265625 0.734375 44.1875 -0.34375 
Q 39.109375 -1.421875 33.890625 -1.421875 
Q 20.796875 -1.421875 13.15625 6.1875 
Q 5.515625 13.8125 5.515625 26.8125 
Q 5.515625 40.234375 12.765625 48.109375 
Q 20.015625 56 32.328125 56 
Q 43.359375 56 49.78125 48.890625 
Q 56.203125 41.796875 56.203125 29.59375 
z
M 47.21875 32.234375 
Q 47.125 39.59375 43.09375 43.984375 
Q 39.0625 48.390625 32.421875 48.390625 
Q 24.90625 48.390625 20.390625 44.140625 
Q 15.875 39.890625 15.1875 32.171875 
z
" id="DejaVuSans-65"/>
     <path d="M 18.109375 8.203125 
L 18.109375 -20.796875 
L 9.078125 -20.796875 
L 9.078125 54.6875 
L 18.109375 54.6875 
L 18.109375 46.390625 
Q 20.953125 51.265625 25.265625 53.625 
Q 29.59375 56 35.59375 56 
Q 45.5625 56 51.78125 48.09375 
Q 58.015625 40.1875 58.015625 27.296875 
Q 58.015625 14.40625 51.78125 6.484375 
Q 45.5625 -1.421875 35.59375 -1.421875 
Q 29.59375 -1.421875 25.265625 0.953125 
Q 20.953125 3.328125 18.109375 8.203125 
z
M 48.6875 27.296875 
Q 48.6875 37.203125 44.609375 42.84375 
Q 40.53125 48.484375 33.40625 48.484375 
Q 26.265625 48.484375 22.1875 42.84375 
Q 18.109375 37.203125 18.109375 27.296875 
Q 18.109375 17.390625 22.1875 11.75 
Q 26.265625 6.109375 33.40625 6.109375 
Q 40.53125 6.109375 44.609375 11.75 
Q 48.6875 17.390625 48.6875 27.296875 
z
" id="DejaVuSans-70"/>
     <path d="M 64.40625 67.28125 
L 64.40625 56.890625 
Q 59.421875 61.53125 53.78125 63.8125 
Q 48.140625 66.109375 41.796875 66.109375 
Q 29.296875 66.109375 22.65625 58.46875 
Q 16.015625 50.828125 16.015625 36.375 
Q 16.015625 21.96875 22.65625 14.328125 
Q 29.296875 6.6875 41.796875 6.6875 
Q 48.140625 6.6875 53.78125 8.984375 
Q 59.421875 11.28125 64.40625 15.921875 
L 64.40625 5.609375 
Q 59.234375 2.09375 53.4375 0.328125 
Q 47.65625 -1.421875 41.21875 -1.421875 
Q 24.65625 -1.421875 15.125 8.703125 
Q 5.609375 18.84375 5.609375 36.375 
Q 5.609375 53.953125 15.125 64.078125 
Q 24.65625 74.21875 41.21875 74.21875 
Q 47.75 74.21875 53.53125 72.484375 
Q 59.328125 70.75 64.40625 67.28125 
z
" id="DejaVuSans-43"/>
     <path d="M 54.890625 33.015625 
L 54.890625 0 
L 45.90625 0 
L 45.90625 32.71875 
Q 45.90625 40.484375 42.875 44.328125 
Q 39.84375 48.1875 33.796875 48.1875 
Q 26.515625 48.1875 22.3125 43.546875 
Q 18.109375 38.921875 18.109375 30.90625 
L 18.109375 0 
L 9.078125 0 
L 9.078125 75.984375 
L 18.109375 75.984375 
L 18.109375 46.1875 
Q 21.34375 51.125 25.703125 53.5625 
Q 30.078125 56 35.796875 56 
Q 45.21875 56 50.046875 50.171875 
Q 54.890625 44.34375 54.890625 33.015625 
z
" id="DejaVuSans-68"/>
     <path d="M 34.28125 27.484375 
Q 23.390625 27.484375 19.1875 25 
Q 14.984375 22.515625 14.984375 16.5 
Q 14.984375 11.71875 18.140625 8.90625 
Q 21.296875 6.109375 26.703125 6.109375 
Q 34.1875 6.109375 38.703125 11.40625 
Q 43.21875 16.703125 43.21875 25.484375 
L 43.21875 27.484375 
z
M 52.203125 31.203125 
L 52.203125 0 
L 43.21875 0 
L 43.21875 8.296875 
Q 40.140625 3.328125 35.546875 0.953125 
Q 30.953125 -1.421875 24.3125 -1.421875 
Q 15.921875 -1.421875 10.953125 3.296875 
Q 6 8.015625 6 15.921875 
Q 6 25.140625 12.171875 29.828125 
Q 18.359375 34.515625 30.609375 34.515625 
L 43.21875 34.515625 
L 43.21875 35.40625 
Q 43.21875 41.609375 39.140625 45 
Q 35.0625 48.390625 27.6875 48.390625 
Q 23 48.390625 18.546875 47.265625 
Q 14.109375 46.140625 10.015625 43.890625 
L 10.015625 52.203125 
Q 14.9375 54.109375 19.578125 55.046875 
Q 24.21875 56 28.609375 56 
Q 40.484375 56 46.34375 49.84375 
Q 52.203125 43.703125 52.203125 31.203125 
z
" id="DejaVuSans-61"/>
     <path d="M 9.421875 54.6875 
L 18.40625 54.6875 
L 18.40625 0 
L 9.421875 0 
z
M 9.421875 75.984375 
L 18.40625 75.984375 
L 18.40625 64.59375 
L 9.421875 64.59375 
z
" id="DejaVuSans-69"/>
     <path d="M 54.890625 33.015625 
L 54.890625 0 
L 45.90625 0 
L 45.90625 32.71875 
Q 45.90625 40.484375 42.875 44.328125 
Q 39.84375 48.1875 33.796875 48.1875 
Q 26.515625 48.1875 22.3125 43.546875 
Q 18.109375 38.921875 18.109375 30.90625 
L 18.109375 0 
L 9.078125 0 
L 9.078125 54.6875 
L 18.109375 54.6875 
L 18.109375 46.1875 
Q 21.34375 51.125 25.703125 53.5625 
Q 30.078125 56 35.796875 56 
Q 45.21875 56 50.046875 50.171875 
Q 54.890625 44.34375 54.890625 33.015625 
z
" id="DejaVuSans-6e"/>
    </defs>
    <g transform="translate(172.775142 9.118125)scale(0.12 -0.12)">
     <use xlink:href="#DejaVuSans-33"/>
     <use x="63.623047" xlink:href="#DejaVuSans-20"/>
     <use x="95.410156" xlink:href="#DejaVuSans-53"/>
     <use x="158.886719" xlink:href="#DejaVuSans-74"/>
     <use x="198.095703" xlink:href="#DejaVuSans-65"/>
     <use x="259.619141" xlink:href="#DejaVuSans-70"/>
     <use x="323.095703" xlink:href="#DejaVuSans-20"/>
     <use x="354.882812" xlink:href="#DejaVuSans-43"/>
     <use x="424.707031" xlink:href="#DejaVuSans-68"/>
     <use x="488.085938" xlink:href="#DejaVuSans-61"/>
     <use x="549.365234" xlink:href="#DejaVuSans-69"/>
     <use x="577.148438" xlink:href="#DejaVuSans-6e"/>
    </g>
   </g>
  </g>
 </g>
 <defs>
  <clipPath id="p5b5a572160">
   <rect height="489.24" width="415.414034" x="3.5" y="15.118125"/>
  </clipPath>
 </defs>
</svg>
