<?xml version="1.0" encoding="utf-8" standalone="no"?>
<!DOCTYPE svg PUBLIC "-//W3C//DTD SVG 1.1//EN"
  "http://www.w3.org/Graphics/SVG/1.1/DTD/svg11.dtd">
<!-- Created with matplotlib (http://matplotlib.org/) -->
<svg height="249.23625pt" version="1.1" viewBox="0 0 367.565625 249.23625" width="367.565625pt" xmlns="http://www.w3.org/2000/svg" xmlns:xlink="http://www.w3.org/1999/xlink">
 <defs>
  <style type="text/css">
*{stroke-linecap:butt;stroke-linejoin:round;}
  </style>
 </defs>
 <g id="figure_1">
  <g id="patch_1">
   <path d="M 0 249.23625 
L 367.565625 249.23625 
L 367.565625 0 
L 0 0 
z
" style="fill:#ffffff;"/>
  </g>
  <g id="axes_1">
   <g id="patch_2">
    <path d="M 29.265625 232.558125 
L 364.065625 232.558125 
L 364.065625 15.118125 
L 29.265625 15.118125 
z
" style="fill:#ffffff;"/>
   </g>
   <g id="matplotlib.axis_1">
    <g id="xtick_1">
     <g id="line2d_1">
      <defs>
       <path d="M 0 0 
L 0 3.5 
" id="m3b0ff091c7" style="stroke:#000000;stroke-width:0.8;"/>
      </defs>
      <g>
       <use style="stroke:#000000;stroke-width:0.8;" x="44.483807" xlink:href="#m3b0ff091c7" y="232.558125"/>
      </g>
     </g>
     <g id="text_1">
      <!-- 0 -->
      <defs>
       <path d="M 31.78125 66.40625 
Q 24.171875 66.40625 20.328125 58.90625 
Q 16.5 51.421875 16.5 36.375 
Q 16.5 21.390625 20.328125 13.890625 
Q 24.171875 6.390625 31.78125 6.390625 
Q 39.453125 6.390625 43.28125 13.890625 
Q 47.125 21.390625 47.125 36.375 
Q 47.125 51.421875 43.28125 58.90625 
Q 39.453125 66.40625 31.78125 66.40625 
z
M 31.78125 74.21875 
Q 44.046875 74.21875 50.515625 64.515625 
Q 56.984375 54.828125 56.984375 36.375 
Q 56.984375 17.96875 50.515625 8.265625 
Q 44.046875 -1.421875 31.78125 -1.421875 
Q 19.53125 -1.421875 13.0625 8.265625 
Q 6.59375 17.96875 6.59375 36.375 
Q 6.59375 54.828125 13.0625 64.515625 
Q 19.53125 74.21875 31.78125 74.21875 
z
" id="DejaVuSans-30"/>
      </defs>
      <g transform="translate(41.302557 247.156563)scale(0.1 -0.1)">
       <use xlink:href="#DejaVuSans-30"/>
      </g>
     </g>
    </g>
    <g id="xtick_2">
     <g id="line2d_2">
      <g>
       <use style="stroke:#000000;stroke-width:0.8;" x="105.356534" xlink:href="#m3b0ff091c7" y="232.558125"/>
      </g>
     </g>
     <g id="text_2">
      <!-- 1 -->
      <defs>
       <path d="M 12.40625 8.296875 
L 28.515625 8.296875 
L 28.515625 63.921875 
L 10.984375 60.40625 
L 10.984375 69.390625 
L 28.421875 72.90625 
L 38.28125 72.90625 
L 38.28125 8.296875 
L 54.390625 8.296875 
L 54.390625 0 
L 12.40625 0 
z
" id="DejaVuSans-31"/>
      </defs>
      <g transform="translate(102.175284 247.156563)scale(0.1 -0.1)">
       <use xlink:href="#DejaVuSans-31"/>
      </g>
     </g>
    </g>
    <g id="xtick_3">
     <g id="line2d_3">
      <g>
       <use style="stroke:#000000;stroke-width:0.8;" x="166.229261" xlink:href="#m3b0ff091c7" y="232.558125"/>
      </g>
     </g>
     <g id="text_3">
      <!-- 2 -->
      <defs>
       <path d="M 19.1875 8.296875 
L 53.609375 8.296875 
L 53.609375 0 
L 7.328125 0 
L 7.328125 8.296875 
Q 12.9375 14.109375 22.625 23.890625 
Q 32.328125 33.6875 34.8125 36.53125 
Q 39.546875 41.84375 41.421875 45.53125 
Q 43.3125 49.21875 43.3125 52.78125 
Q 43.3125 58.59375 39.234375 62.25 
Q 35.15625 65.921875 28.609375 65.921875 
Q 23.96875 65.921875 18.8125 64.3125 
Q 13.671875 62.703125 7.8125 59.421875 
L 7.8125 69.390625 
Q 13.765625 71.78125 18.9375 73 
Q 24.125 74.21875 28.421875 74.21875 
Q 39.75 74.21875 46.484375 68.546875 
Q 53.21875 62.890625 53.21875 53.421875 
Q 53.21875 48.921875 51.53125 44.890625 
Q 49.859375 40.875 45.40625 35.40625 
Q 44.1875 33.984375 37.640625 27.21875 
Q 31.109375 20.453125 19.1875 8.296875 
z
" id="DejaVuSans-32"/>
      </defs>
      <g transform="translate(163.048011 247.156563)scale(0.1 -0.1)">
       <use xlink:href="#DejaVuSans-32"/>
      </g>
     </g>
    </g>
    <g id="xtick_4">
     <g id="line2d_4">
      <g>
       <use style="stroke:#000000;stroke-width:0.8;" x="227.101989" xlink:href="#m3b0ff091c7" y="232.558125"/>
      </g>
     </g>
     <g id="text_4">
      <!-- 3 -->
      <defs>
       <path d="M 40.578125 39.3125 
Q 47.65625 37.796875 51.625 33 
Q 55.609375 28.21875 55.609375 21.1875 
Q 55.609375 10.40625 48.1875 4.484375 
Q 40.765625 -1.421875 27.09375 -1.421875 
Q 22.515625 -1.421875 17.65625 -0.515625 
Q 12.796875 0.390625 7.625 2.203125 
L 7.625 11.71875 
Q 11.71875 9.328125 16.59375 8.109375 
Q 21.484375 6.890625 26.8125 6.890625 
Q 36.078125 6.890625 40.9375 10.546875 
Q 45.796875 14.203125 45.796875 21.1875 
Q 45.796875 27.640625 41.28125 31.265625 
Q 36.765625 34.90625 28.71875 34.90625 
L 20.21875 34.90625 
L 20.21875 43.015625 
L 29.109375 43.015625 
Q 36.375 43.015625 40.234375 45.921875 
Q 44.09375 48.828125 44.09375 54.296875 
Q 44.09375 59.90625 40.109375 62.90625 
Q 36.140625 65.921875 28.71875 65.921875 
Q 24.65625 65.921875 20.015625 65.03125 
Q 15.375 64.15625 9.8125 62.3125 
L 9.8125 71.09375 
Q 15.4375 72.65625 20.34375 73.4375 
Q 25.25 74.21875 29.59375 74.21875 
Q 40.828125 74.21875 47.359375 69.109375 
Q 53.90625 64.015625 53.90625 55.328125 
Q 53.90625 49.265625 50.4375 45.09375 
Q 46.96875 40.921875 40.578125 39.3125 
z
" id="DejaVuSans-33"/>
      </defs>
      <g transform="translate(223.920739 247.156563)scale(0.1 -0.1)">
       <use xlink:href="#DejaVuSans-33"/>
      </g>
     </g>
    </g>
    <g id="xtick_5">
     <g id="line2d_5">
      <g>
       <use style="stroke:#000000;stroke-width:0.8;" x="287.974716" xlink:href="#m3b0ff091c7" y="232.558125"/>
      </g>
     </g>
     <g id="text_5">
      <!-- 4 -->
      <defs>
       <path d="M 37.796875 64.3125 
L 12.890625 25.390625 
L 37.796875 25.390625 
z
M 35.203125 72.90625 
L 47.609375 72.90625 
L 47.609375 25.390625 
L 58.015625 25.390625 
L 58.015625 17.1875 
L 47.609375 17.1875 
L 47.609375 0 
L 37.796875 0 
L 37.796875 17.1875 
L 4.890625 17.1875 
L 4.890625 26.703125 
z
" id="DejaVuSans-34"/>
      </defs>
      <g transform="translate(284.793466 247.156563)scale(0.1 -0.1)">
       <use xlink:href="#DejaVuSans-34"/>
      </g>
     </g>
    </g>
    <g id="xtick_6">
     <g id="line2d_6">
      <g>
       <use style="stroke:#000000;stroke-width:0.8;" x="348.847443" xlink:href="#m3b0ff091c7" y="232.558125"/>
      </g>
     </g>
     <g id="text_6">
      <!-- 5 -->
      <defs>
       <path d="M 10.796875 72.90625 
L 49.515625 72.90625 
L 49.515625 64.59375 
L 19.828125 64.59375 
L 19.828125 46.734375 
Q 21.96875 47.46875 24.109375 47.828125 
Q 26.265625 48.1875 28.421875 48.1875 
Q 40.625 48.1875 47.75 41.5 
Q 54.890625 34.8125 54.890625 23.390625 
Q 54.890625 11.625 47.5625 5.09375 
Q 40.234375 -1.421875 26.90625 -1.421875 
Q 22.3125 -1.421875 17.546875 -0.640625 
Q 12.796875 0.140625 7.71875 1.703125 
L 7.71875 11.625 
Q 12.109375 9.234375 16.796875 8.0625 
Q 21.484375 6.890625 26.703125 6.890625 
Q 35.15625 6.890625 40.078125 11.328125 
Q 45.015625 15.765625 45.015625 23.390625 
Q 45.015625 31 40.078125 35.4375 
Q 35.15625 39.890625 26.703125 39.890625 
Q 22.75 39.890625 18.8125 39.015625 
Q 14.890625 38.140625 10.796875 36.28125 
z
" id="DejaVuSans-35"/>
      </defs>
      <g transform="translate(345.666193 247.156563)scale(0.1 -0.1)">
       <use xlink:href="#DejaVuSans-35"/>
      </g>
     </g>
    </g>
   </g>
   <g id="matplotlib.axis_2">
    <g id="ytick_1">
     <g id="line2d_7">
      <defs>
       <path d="M 0 0 
L -3.5 0 
" id="mfdc73be277" style="stroke:#000000;stroke-width:0.8;"/>
      </defs>
      <g>
       <use style="stroke:#000000;stroke-width:0.8;" x="29.265625" xlink:href="#mfdc73be277" y="214.437286"/>
      </g>
     </g>
     <g id="text_7">
      <!-- 0.25 -->
      <defs>
       <path d="M 10.6875 12.40625 
L 21 12.40625 
L 21 0 
L 10.6875 0 
z
" id="DejaVuSans-2e"/>
      </defs>
      <g transform="translate(0 218.236504)scale(0.1 -0.1)">
       <use xlink:href="#DejaVuSans-30"/>
       <use x="63.623047" xlink:href="#DejaVuSans-2e"/>
       <use x="95.410156" xlink:href="#DejaVuSans-32"/>
       <use x="159.033203" xlink:href="#DejaVuSans-35"/>
      </g>
     </g>
    </g>
    <g id="ytick_2">
     <g id="line2d_8">
      <g>
       <use style="stroke:#000000;stroke-width:0.8;" x="29.265625" xlink:href="#mfdc73be277" y="184.237565"/>
      </g>
     </g>
     <g id="text_8">
      <!-- 0.50 -->
      <g transform="translate(0 188.036784)scale(0.1 -0.1)">
       <use xlink:href="#DejaVuSans-30"/>
       <use x="63.623047" xlink:href="#DejaVuSans-2e"/>
       <use x="95.410156" xlink:href="#DejaVuSans-35"/>
       <use x="159.033203" xlink:href="#DejaVuSans-30"/>
      </g>
     </g>
    </g>
    <g id="ytick_3">
     <g id="line2d_9">
      <g>
       <use style="stroke:#000000;stroke-width:0.8;" x="29.265625" xlink:href="#mfdc73be277" y="154.037845"/>
      </g>
     </g>
     <g id="text_9">
      <!-- 0.75 -->
      <defs>
       <path d="M 8.203125 72.90625 
L 55.078125 72.90625 
L 55.078125 68.703125 
L 28.609375 0 
L 18.3125 0 
L 43.21875 64.59375 
L 8.203125 64.59375 
z
" id="DejaVuSans-37"/>
      </defs>
      <g transform="translate(0 157.837064)scale(0.1 -0.1)">
       <use xlink:href="#DejaVuSans-30"/>
       <use x="63.623047" xlink:href="#DejaVuSans-2e"/>
       <use x="95.410156" xlink:href="#DejaVuSans-37"/>
       <use x="159.033203" xlink:href="#DejaVuSans-35"/>
      </g>
     </g>
    </g>
    <g id="ytick_4">
     <g id="line2d_10">
      <g>
       <use style="stroke:#000000;stroke-width:0.8;" x="29.265625" xlink:href="#mfdc73be277" y="123.838125"/>
      </g>
     </g>
     <g id="text_10">
      <!-- 1.00 -->
      <g transform="translate(0 127.637344)scale(0.1 -0.1)">
       <use xlink:href="#DejaVuSans-31"/>
       <use x="63.623047" xlink:href="#DejaVuSans-2e"/>
       <use x="95.410156" xlink:href="#DejaVuSans-30"/>
       <use x="159.033203" xlink:href="#DejaVuSans-30"/>
      </g>
     </g>
    </g>
    <g id="ytick_5">
     <g id="line2d_11">
      <g>
       <use style="stroke:#000000;stroke-width:0.8;" x="29.265625" xlink:href="#mfdc73be277" y="93.638405"/>
      </g>
     </g>
     <g id="text_11">
      <!-- 1.25 -->
      <g transform="translate(0 97.437624)scale(0.1 -0.1)">
       <use xlink:href="#DejaVuSans-31"/>
       <use x="63.623047" xlink:href="#DejaVuSans-2e"/>
       <use x="95.410156" xlink:href="#DejaVuSans-32"/>
       <use x="159.033203" xlink:href="#DejaVuSans-35"/>
      </g>
     </g>
    </g>
    <g id="ytick_6">
     <g id="line2d_12">
      <g>
       <use style="stroke:#000000;stroke-width:0.8;" x="29.265625" xlink:href="#mfdc73be277" y="63.438685"/>
      </g>
     </g>
     <g id="text_12">
      <!-- 1.50 -->
      <g transform="translate(0 67.237903)scale(0.1 -0.1)">
       <use xlink:href="#DejaVuSans-31"/>
       <use x="63.623047" xlink:href="#DejaVuSans-2e"/>
       <use x="95.410156" xlink:href="#DejaVuSans-35"/>
       <use x="159.033203" xlink:href="#DejaVuSans-30"/>
      </g>
     </g>
    </g>
    <g id="ytick_7">
     <g id="line2d_13">
      <g>
       <use style="stroke:#000000;stroke-width:0.8;" x="29.265625" xlink:href="#mfdc73be277" y="33.238964"/>
      </g>
     </g>
     <g id="text_13">
      <!-- 1.75 -->
      <g transform="translate(0 37.038183)scale(0.1 -0.1)">
       <use xlink:href="#DejaVuSans-31"/>
       <use x="63.623047" xlink:href="#DejaVuSans-2e"/>
       <use x="95.410156" xlink:href="#DejaVuSans-37"/>
       <use x="159.033203" xlink:href="#DejaVuSans-35"/>
      </g>
     </g>
    </g>
   </g>
   <g id="line2d_14">
    <path clip-path="url(#p4233db54d0)" d="M 44.483807 123.838125 
L 50.57108 134.138777 
L 56.658352 143.377014 
L 62.745625 151.652821 
L 68.832898 159.063036 
L 74.92017 165.691245 
L 81.007443 171.621964 
L 87.094716 176.93135 
L 93.181989 181.685977 
L 99.269261 185.941232 
L 105.356534 189.750811 
L 111.443807 193.160668 
L 117.53108 196.221179 
L 123.618352 198.958898 
L 129.705625 201.414942 
L 135.792898 203.615113 
L 141.88017 205.591635 
L 147.967443 207.366002 
L 154.054716 208.959995 
L 160.141989 210.389399 
L 166.229261 211.670916 
L 172.316534 212.818368 
L 178.403807 213.846188 
L 184.49108 214.766132 
L 190.578352 215.589916 
L 196.665625 216.327749 
L 202.752898 216.98873 
L 208.84017 217.580965 
L 214.927443 218.111435 
L 221.014716 218.587281 
L 227.101989 219.01446 
L 233.189261 219.397428 
L 239.276534 219.740152 
L 245.363807 220.048767 
L 251.45108 220.325366 
L 257.538352 220.572444 
L 263.625625 220.793194 
L 269.712898 220.99212 
L 275.80017 221.16988 
L 281.887443 221.327968 
L 287.974716 221.469717 
L 294.061989 221.596895 
L 300.149261 221.710345 
L 306.236534 221.811239 
L 312.323807 221.902042 
L 318.41108 221.983212 
L 324.498352 222.055638 
L 330.585625 222.120276 
L 336.672898 222.17823 
L 342.76017 222.230051 
L 348.847443 222.276391 
" style="fill:none;stroke:#ff0000;stroke-dasharray:1.5,2.475;stroke-dashoffset:0;stroke-width:1.5;"/>
   </g>
   <g id="line2d_15">
    <path clip-path="url(#p4233db54d0)" d="M 44.483807 123.838125 
L 50.57108 113.537473 
L 56.658352 104.299236 
L 62.745625 96.023429 
L 68.832898 88.613214 
L 74.92017 81.985005 
L 81.007443 76.054286 
L 87.094716 70.7449 
L 93.181989 65.990273 
L 99.269261 61.735018 
L 105.356534 57.925439 
L 111.443807 54.515582 
L 117.53108 51.455071 
L 123.618352 48.717352 
L 129.705625 46.261308 
L 135.792898 44.061137 
L 141.88017 42.084615 
L 147.967443 40.310248 
L 154.054716 38.716255 
L 160.141989 37.286851 
L 166.229261 36.005334 
L 172.316534 34.857882 
L 178.403807 33.830062 
L 184.49108 32.910118 
L 190.578352 32.086334 
L 196.665625 31.348501 
L 202.752898 30.68752 
L 208.84017 30.095285 
L 214.927443 29.564815 
L 221.014716 29.088969 
L 227.101989 28.66179 
L 233.189261 28.278822 
L 239.276534 27.936098 
L 245.363807 27.627483 
L 251.45108 27.350884 
L 257.538352 27.103806 
L 263.625625 26.883056 
L 269.712898 26.68413 
L 275.80017 26.50637 
L 281.887443 26.348282 
L 287.974716 26.206533 
L 294.061989 26.079355 
L 300.149261 25.965905 
L 306.236534 25.865011 
L 312.323807 25.774208 
L 318.41108 25.693038 
L 324.498352 25.620612 
L 330.585625 25.555974 
L 336.672898 25.49802 
L 342.76017 25.446199 
L 348.847443 25.399859 
" style="fill:none;stroke:#ff0000;stroke-linecap:square;stroke-width:1.5;"/>
   </g>
   <g id="line2d_16">
    <path clip-path="url(#p4233db54d0)" d="M 44.483807 123.838125 
L 50.57108 189.750811 
L 56.658352 211.670916 
L 62.745625 219.01446 
L 68.832898 221.469717 
L 74.92017 222.276279 
L 81.007443 222.537393 
L 87.094716 222.625309 
L 93.181989 222.657779 
L 99.269261 222.669652 
L 105.356534 222.674489 
L 111.443807 222.674126 
L 117.53108 222.673854 
L 123.618352 222.673719 
L 129.705625 222.673673 
L 135.792898 222.673628 
L 141.88017 222.67361 
L 147.967443 222.673603 
L 154.054716 222.673596 
L 160.141989 222.673589 
L 166.229261 222.673583 
L 172.316534 222.673579 
L 178.403807 222.673578 
L 184.49108 222.673578 
L 190.578352 222.673577 
L 196.665625 222.673577 
L 202.752898 222.673576 
L 208.84017 222.673575 
L 214.927443 222.673575 
L 221.014716 222.673574 
L 227.101989 222.673574 
L 233.189261 222.673573 
L 239.276534 222.673573 
L 245.363807 222.673573 
L 251.45108 222.673573 
L 257.538352 222.673573 
L 263.625625 222.673573 
L 269.712898 222.673573 
L 275.80017 222.673573 
L 281.887443 222.673573 
L 287.974716 222.673573 
L 294.061989 222.673573 
L 300.149261 222.673573 
L 306.236534 222.673573 
L 312.323807 222.673573 
L 318.41108 222.673573 
L 324.498352 222.673573 
L 330.585625 222.673573 
L 336.672898 222.673573 
L 342.76017 222.673573 
L 348.847443 222.673573 
" style="fill:none;stroke:#0000ff;stroke-dasharray:1.5,2.475;stroke-dashoffset:0;stroke-width:1.5;"/>
   </g>
   <g id="line2d_17">
    <path clip-path="url(#p4233db54d0)" d="M 44.483807 123.838125 
L 50.57108 57.925439 
L 56.658352 36.005334 
L 62.745625 28.66179 
L 68.832898 26.206533 
L 74.92017 25.399971 
L 81.007443 25.138857 
L 87.094716 25.050941 
L 93.181989 25.018471 
L 99.269261 25.006598 
L 105.356534 25.001761 
L 111.443807 25.002124 
L 117.53108 25.002396 
L 123.618352 25.002531 
L 129.705625 25.002577 
L 135.792898 25.002622 
L 141.88017 25.00264 
L 147.967443 25.002647 
L 154.054716 25.002654 
L 160.141989 25.002661 
L 166.229261 25.002667 
L 172.316534 25.002671 
L 178.403807 25.002672 
L 184.49108 25.002672 
L 190.578352 25.002673 
L 196.665625 25.002673 
L 202.752898 25.002674 
L 208.84017 25.002675 
L 214.927443 25.002675 
L 221.014716 25.002676 
L 227.101989 25.002676 
L 233.189261 25.002677 
L 239.276534 25.002677 
L 245.363807 25.002677 
L 251.45108 25.002677 
L 257.538352 25.002677 
L 263.625625 25.002677 
L 269.712898 25.002677 
L 275.80017 25.002677 
L 281.887443 25.002677 
L 287.974716 25.002677 
L 294.061989 25.002677 
L 300.149261 25.002677 
L 306.236534 25.002677 
L 312.323807 25.002677 
L 318.41108 25.002677 
L 324.498352 25.002677 
L 330.585625 25.002677 
L 336.672898 25.002677 
L 342.76017 25.002677 
L 348.847443 25.002677 
" style="fill:none;stroke:#0000ff;stroke-linecap:square;stroke-width:1.5;"/>
   </g>
   <g id="line2d_18">
    <path clip-path="url(#p4233db54d0)" d="M 44.483807 123.838125 
L 50.57108 222.674489 
L 56.658352 222.673583 
L 62.745625 222.673574 
L 68.832898 222.673573 
L 74.92017 222.673573 
L 81.007443 222.673573 
L 87.094716 222.673573 
L 93.181989 222.673573 
L 99.269261 222.673573 
L 105.356534 222.673573 
L 111.443807 222.673573 
L 117.53108 222.673573 
L 123.618352 222.673573 
L 129.705625 222.673573 
L 135.792898 222.673573 
L 141.88017 222.673573 
L 147.967443 222.673573 
L 154.054716 222.673573 
L 160.141989 222.673573 
L 166.229261 222.673573 
L 172.316534 222.673573 
L 178.403807 222.673573 
L 184.49108 222.673573 
L 190.578352 222.673573 
L 196.665625 222.673573 
L 202.752898 222.673573 
L 208.84017 222.673573 
L 214.927443 222.673573 
L 221.014716 222.673573 
L 227.101989 222.673573 
L 233.189261 222.673573 
L 239.276534 222.673573 
L 245.363807 222.673573 
L 251.45108 222.673573 
L 257.538352 222.673573 
L 263.625625 222.673573 
L 269.712898 222.673573 
L 275.80017 222.673573 
L 281.887443 222.673573 
L 287.974716 222.673573 
L 294.061989 222.673573 
L 300.149261 222.673573 
L 306.236534 222.673573 
L 312.323807 222.673573 
L 318.41108 222.673573 
L 324.498352 222.673573 
L 330.585625 222.673573 
L 336.672898 222.673573 
L 342.76017 222.673573 
L 348.847443 222.673573 
" style="fill:none;stroke:#008000;stroke-dasharray:1.5,2.475;stroke-dashoffset:0;stroke-width:1.5;"/>
   </g>
   <g id="line2d_19">
    <path clip-path="url(#p4233db54d0)" d="M 44.483807 123.838125 
L 50.57108 25.001761 
L 56.658352 25.002667 
L 62.745625 25.002676 
L 68.832898 25.002677 
L 74.92017 25.002677 
L 81.007443 25.002677 
L 87.094716 25.002677 
L 93.181989 25.002677 
L 99.269261 25.002677 
L 105.356534 25.002677 
L 111.443807 25.002677 
L 117.53108 25.002677 
L 123.618352 25.002677 
L 129.705625 25.002677 
L 135.792898 25.002677 
L 141.88017 25.002677 
L 147.967443 25.002677 
L 154.054716 25.002677 
L 160.141989 25.002677 
L 166.229261 25.002677 
L 172.316534 25.002677 
L 178.403807 25.002677 
L 184.49108 25.002677 
L 190.578352 25.002677 
L 196.665625 25.002677 
L 202.752898 25.002677 
L 208.84017 25.002677 
L 214.927443 25.002677 
L 221.014716 25.002677 
L 227.101989 25.002677 
L 233.189261 25.002677 
L 239.276534 25.002677 
L 245.363807 25.002677 
L 251.45108 25.002677 
L 257.538352 25.002677 
L 263.625625 25.002677 
L 269.712898 25.002677 
L 275.80017 25.002677 
L 281.887443 25.002677 
L 287.974716 25.002677 
L 294.061989 25.002677 
L 300.149261 25.002677 
L 306.236534 25.002677 
L 312.323807 25.002677 
L 318.41108 25.002677 
L 324.498352 25.002677 
L 330.585625 25.002677 
L 336.672898 25.002677 
L 342.76017 25.002677 
L 348.847443 25.002677 
" style="fill:none;stroke:#008000;stroke-linecap:square;stroke-width:1.5;"/>
   </g>
   <g id="patch_3">
    <path d="M 29.265625 232.558125 
L 29.265625 15.118125 
" style="fill:none;stroke:#000000;stroke-linecap:square;stroke-linejoin:miter;stroke-width:0.8;"/>
   </g>
   <g id="patch_4">
    <path d="M 364.065625 232.558125 
L 364.065625 15.118125 
" style="fill:none;stroke:#000000;stroke-linecap:square;stroke-linejoin:miter;stroke-width:0.8;"/>
   </g>
   <g id="patch_5">
    <path d="M 29.265625 232.558125 
L 364.065625 232.558125 
" style="fill:none;stroke:#000000;stroke-linecap:square;stroke-linejoin:miter;stroke-width:0.8;"/>
   </g>
   <g id="patch_6">
    <path d="M 29.265625 15.118125 
L 364.065625 15.118125 
" style="fill:none;stroke:#000000;stroke-linecap:square;stroke-linejoin:miter;stroke-width:0.8;"/>
   </g>
   <g id="text_14">
    <!-- One Step Reaction -->
    <defs>
     <path d="M 39.40625 66.21875 
Q 28.65625 66.21875 22.328125 58.203125 
Q 16.015625 50.203125 16.015625 36.375 
Q 16.015625 22.609375 22.328125 14.59375 
Q 28.65625 6.59375 39.40625 6.59375 
Q 50.140625 6.59375 56.421875 14.59375 
Q 62.703125 22.609375 62.703125 36.375 
Q 62.703125 50.203125 56.421875 58.203125 
Q 50.140625 66.21875 39.40625 66.21875 
z
M 39.40625 74.21875 
Q 54.734375 74.21875 63.90625 63.9375 
Q 73.09375 53.65625 73.09375 36.375 
Q 73.09375 19.140625 63.90625 8.859375 
Q 54.734375 -1.421875 39.40625 -1.421875 
Q 24.03125 -1.421875 14.8125 8.828125 
Q 5.609375 19.09375 5.609375 36.375 
Q 5.609375 53.65625 14.8125 63.9375 
Q 24.03125 74.21875 39.40625 74.21875 
z
" id="DejaVuSans-4f"/>
     <path d="M 54.890625 33.015625 
L 54.890625 0 
L 45.90625 0 
L 45.90625 32.71875 
Q 45.90625 40.484375 42.875 44.328125 
Q 39.84375 48.1875 33.796875 48.1875 
Q 26.515625 48.1875 22.3125 43.546875 
Q 18.109375 38.921875 18.109375 30.90625 
L 18.109375 0 
L 9.078125 0 
L 9.078125 54.6875 
L 18.109375 54.6875 
L 18.109375 46.1875 
Q 21.34375 51.125 25.703125 53.5625 
Q 30.078125 56 35.796875 56 
Q 45.21875 56 50.046875 50.171875 
Q 54.890625 44.34375 54.890625 33.015625 
z
" id="DejaVuSans-6e"/>
     <path d="M 56.203125 29.59375 
L 56.203125 25.203125 
L 14.890625 25.203125 
Q 15.484375 15.921875 20.484375 11.0625 
Q 25.484375 6.203125 34.421875 6.203125 
Q 39.59375 6.203125 44.453125 7.46875 
Q 49.3125 8.734375 54.109375 11.28125 
L 54.109375 2.78125 
Q 49.265625 0.734375 44.1875 -0.34375 
Q 39.109375 -1.421875 33.890625 -1.421875 
Q 20.796875 -1.421875 13.15625 6.1875 
Q 5.515625 13.8125 5.515625 26.8125 
Q 5.515625 40.234375 12.765625 48.109375 
Q 20.015625 56 32.328125 56 
Q 43.359375 56 49.78125 48.890625 
Q 56.203125 41.796875 56.203125 29.59375 
z
M 47.21875 32.234375 
Q 47.125 39.59375 43.09375 43.984375 
Q 39.0625 48.390625 32.421875 48.390625 
Q 24.90625 48.390625 20.390625 44.140625 
Q 15.875 39.890625 15.1875 32.171875 
z
" id="DejaVuSans-65"/>
     <path id="DejaVuSans-20"/>
     <path d="M 53.515625 70.515625 
L 53.515625 60.890625 
Q 47.90625 63.578125 42.921875 64.890625 
Q 37.9375 66.21875 33.296875 66.21875 
Q 25.25 66.21875 20.875 63.09375 
Q 16.5 59.96875 16.5 54.203125 
Q 16.5 49.359375 19.40625 46.890625 
Q 22.3125 44.4375 30.421875 42.921875 
L 36.375 41.703125 
Q 47.40625 39.59375 52.65625 34.296875 
Q 57.90625 29 57.90625 20.125 
Q 57.90625 9.515625 50.796875 4.046875 
Q 43.703125 -1.421875 29.984375 -1.421875 
Q 24.8125 -1.421875 18.96875 -0.25 
Q 13.140625 0.921875 6.890625 3.21875 
L 6.890625 13.375 
Q 12.890625 10.015625 18.65625 8.296875 
Q 24.421875 6.59375 29.984375 6.59375 
Q 38.421875 6.59375 43.015625 9.90625 
Q 47.609375 13.234375 47.609375 19.390625 
Q 47.609375 24.75 44.3125 27.78125 
Q 41.015625 30.8125 33.5 32.328125 
L 27.484375 33.5 
Q 16.453125 35.6875 11.515625 40.375 
Q 6.59375 45.0625 6.59375 53.421875 
Q 6.59375 63.09375 13.40625 68.65625 
Q 20.21875 74.21875 32.171875 74.21875 
Q 37.3125 74.21875 42.625 73.28125 
Q 47.953125 72.359375 53.515625 70.515625 
z
" id="DejaVuSans-53"/>
     <path d="M 18.3125 70.21875 
L 18.3125 54.6875 
L 36.8125 54.6875 
L 36.8125 47.703125 
L 18.3125 47.703125 
L 18.3125 18.015625 
Q 18.3125 11.328125 20.140625 9.421875 
Q 21.96875 7.515625 27.59375 7.515625 
L 36.8125 7.515625 
L 36.8125 0 
L 27.59375 0 
Q 17.1875 0 13.234375 3.875 
Q 9.28125 7.765625 9.28125 18.015625 
L 9.28125 47.703125 
L 2.6875 47.703125 
L 2.6875 54.6875 
L 9.28125 54.6875 
L 9.28125 70.21875 
z
" id="DejaVuSans-74"/>
     <path d="M 18.109375 8.203125 
L 18.109375 -20.796875 
L 9.078125 -20.796875 
L 9.078125 54.6875 
L 18.109375 54.6875 
L 18.109375 46.390625 
Q 20.953125 51.265625 25.265625 53.625 
Q 29.59375 56 35.59375 56 
Q 45.5625 56 51.78125 48.09375 
Q 58.015625 40.1875 58.015625 27.296875 
Q 58.015625 14.40625 51.78125 6.484375 
Q 45.5625 -1.421875 35.59375 -1.421875 
Q 29.59375 -1.421875 25.265625 0.953125 
Q 20.953125 3.328125 18.109375 8.203125 
z
M 48.6875 27.296875 
Q 48.6875 37.203125 44.609375 42.84375 
Q 40.53125 48.484375 33.40625 48.484375 
Q 26.265625 48.484375 22.1875 42.84375 
Q 18.109375 37.203125 18.109375 27.296875 
Q 18.109375 17.390625 22.1875 11.75 
Q 26.265625 6.109375 33.40625 6.109375 
Q 40.53125 6.109375 44.609375 11.75 
Q 48.6875 17.390625 48.6875 27.296875 
z
" id="DejaVuSans-70"/>
     <path d="M 44.390625 34.1875 
Q 47.5625 33.109375 50.5625 29.59375 
Q 53.5625 26.078125 56.59375 19.921875 
L 66.609375 0 
L 56 0 
L 46.6875 18.703125 
Q 43.0625 26.03125 39.671875 28.421875 
Q 36.28125 30.8125 30.421875 30.8125 
L 19.671875 30.8125 
L 19.671875 0 
L 9.8125 0 
L 9.8125 72.90625 
L 32.078125 72.90625 
Q 44.578125 72.90625 50.734375 67.671875 
Q 56.890625 62.453125 56.890625 51.90625 
Q 56.890625 45.015625 53.6875 40.46875 
Q 50.484375 35.9375 44.390625 34.1875 
z
M 19.671875 64.796875 
L 19.671875 38.921875 
L 32.078125 38.921875 
Q 39.203125 38.921875 42.84375 42.21875 
Q 46.484375 45.515625 46.484375 51.90625 
Q 46.484375 58.296875 42.84375 61.546875 
Q 39.203125 64.796875 32.078125 64.796875 
z
" id="DejaVuSans-52"/>
     <path d="M 34.28125 27.484375 
Q 23.390625 27.484375 19.1875 25 
Q 14.984375 22.515625 14.984375 16.5 
Q 14.984375 11.71875 18.140625 8.90625 
Q 21.296875 6.109375 26.703125 6.109375 
Q 34.1875 6.109375 38.703125 11.40625 
Q 43.21875 16.703125 43.21875 25.484375 
L 43.21875 27.484375 
z
M 52.203125 31.203125 
L 52.203125 0 
L 43.21875 0 
L 43.21875 8.296875 
Q 40.140625 3.328125 35.546875 0.953125 
Q 30.953125 -1.421875 24.3125 -1.421875 
Q 15.921875 -1.421875 10.953125 3.296875 
Q 6 8.015625 6 15.921875 
Q 6 25.140625 12.171875 29.828125 
Q 18.359375 34.515625 30.609375 34.515625 
L 43.21875 34.515625 
L 43.21875 35.40625 
Q 43.21875 41.609375 39.140625 45 
Q 35.0625 48.390625 27.6875 48.390625 
Q 23 48.390625 18.546875 47.265625 
Q 14.109375 46.140625 10.015625 43.890625 
L 10.015625 52.203125 
Q 14.9375 54.109375 19.578125 55.046875 
Q 24.21875 56 28.609375 56 
Q 40.484375 56 46.34375 49.84375 
Q 52.203125 43.703125 52.203125 31.203125 
z
" id="DejaVuSans-61"/>
     <path d="M 48.78125 52.59375 
L 48.78125 44.1875 
Q 44.96875 46.296875 41.140625 47.34375 
Q 37.3125 48.390625 33.40625 48.390625 
Q 24.65625 48.390625 19.8125 42.84375 
Q 14.984375 37.3125 14.984375 27.296875 
Q 14.984375 17.28125 19.8125 11.734375 
Q 24.65625 6.203125 33.40625 6.203125 
Q 37.3125 6.203125 41.140625 7.25 
Q 44.96875 8.296875 48.78125 10.40625 
L 48.78125 2.09375 
Q 45.015625 0.34375 40.984375 -0.53125 
Q 36.96875 -1.421875 32.421875 -1.421875 
Q 20.0625 -1.421875 12.78125 6.34375 
Q 5.515625 14.109375 5.515625 27.296875 
Q 5.515625 40.671875 12.859375 48.328125 
Q 20.21875 56 33.015625 56 
Q 37.15625 56 41.109375 55.140625 
Q 45.0625 54.296875 48.78125 52.59375 
z
" id="DejaVuSans-63"/>
     <path d="M 9.421875 54.6875 
L 18.40625 54.6875 
L 18.40625 0 
L 9.421875 0 
z
M 9.421875 75.984375 
L 18.40625 75.984375 
L 18.40625 64.59375 
L 9.421875 64.59375 
z
" id="DejaVuSans-69"/>
     <path d="M 30.609375 48.390625 
Q 23.390625 48.390625 19.1875 42.75 
Q 14.984375 37.109375 14.984375 27.296875 
Q 14.984375 17.484375 19.15625 11.84375 
Q 23.34375 6.203125 30.609375 6.203125 
Q 37.796875 6.203125 41.984375 11.859375 
Q 46.1875 17.53125 46.1875 27.296875 
Q 46.1875 37.015625 41.984375 42.703125 
Q 37.796875 48.390625 30.609375 48.390625 
z
M 30.609375 56 
Q 42.328125 56 49.015625 48.375 
Q 55.71875 40.765625 55.71875 27.296875 
Q 55.71875 13.875 49.015625 6.21875 
Q 42.328125 -1.421875 30.609375 -1.421875 
Q 18.84375 -1.421875 12.171875 6.21875 
Q 5.515625 13.875 5.515625 27.296875 
Q 5.515625 40.765625 12.171875 48.375 
Q 18.84375 56 30.609375 56 
z
" id="DejaVuSans-6f"/>
    </defs>
    <g transform="translate(140.64625 9.118125)scale(0.12 -0.12)">
     <use xlink:href="#DejaVuSans-4f"/>
     <use x="78.710938" xlink:href="#DejaVuSans-6e"/>
     <use x="142.089844" xlink:href="#DejaVuSans-65"/>
     <use x="203.613281" xlink:href="#DejaVuSans-20"/>
     <use x="235.400391" xlink:href="#DejaVuSans-53"/>
     <use x="298.876953" xlink:href="#DejaVuSans-74"/>
     <use x="338.085938" xlink:href="#DejaVuSans-65"/>
     <use x="399.609375" xlink:href="#DejaVuSans-70"/>
     <use x="463.085938" xlink:href="#DejaVuSans-20"/>
     <use x="494.873047" xlink:href="#DejaVuSans-52"/>
     <use x="564.292969" xlink:href="#DejaVuSans-65"/>
     <use x="625.816406" xlink:href="#DejaVuSans-61"/>
     <use x="687.095703" xlink:href="#DejaVuSans-63"/>
     <use x="742.076172" xlink:href="#DejaVuSans-74"/>
     <use x="781.285156" xlink:href="#DejaVuSans-69"/>
     <use x="809.068359" xlink:href="#DejaVuSans-6f"/>
     <use x="870.25" xlink:href="#DejaVuSans-6e"/>
    </g>
   </g>
  </g>
 </g>
 <defs>
  <clipPath id="p4233db54d0">
   <rect height="217.44" width="334.8" x="29.265625" y="15.118125"/>
  </clipPath>
 </defs>
</svg>
