<?xml version="1.0" encoding="utf-8" standalone="no"?>
<!DOCTYPE svg PUBLIC "-//W3C//DTD SVG 1.1//EN"
  "http://www.w3.org/Graphics/SVG/1.1/DTD/svg11.dtd">
<!-- Created with matplotlib (http://matplotlib.org/) -->
<svg height="237.618125pt" version="1.1" viewBox="0 0 375.945312 237.618125" width="375.945312pt" xmlns="http://www.w3.org/2000/svg" xmlns:xlink="http://www.w3.org/1999/xlink">
 <defs>
  <style type="text/css">
*{stroke-linecap:butt;stroke-linejoin:round;}
  </style>
 </defs>
 <g id="figure_1">
  <g id="patch_1">
   <path d="M 0 237.618125 
L 375.945312 237.618125 
L 375.945312 0 
L 0 0 
z
" style="fill:#ffffff;"/>
  </g>
  <g id="axes_1">
   <g id="patch_2">
    <path d="M 37.645313 220.94 
L 372.445312 220.94 
L 372.445312 3.5 
L 37.645313 3.5 
z
" style="fill:#ffffff;"/>
   </g>
   <g id="matplotlib.axis_1">
    <g id="xtick_1">
     <g id="line2d_1">
      <defs>
       <path d="M 0 0 
L 0 3.5 
" id="m119f16d5ee" style="stroke:#000000;stroke-width:0.8;"/>
      </defs>
      <g>
       <use style="stroke:#000000;stroke-width:0.8;" x="52.863494" xlink:href="#m119f16d5ee" y="220.94"/>
      </g>
     </g>
     <g id="text_1">
      <!-- 0 -->
      <defs>
       <path d="M 31.78125 66.40625 
Q 24.171875 66.40625 20.328125 58.90625 
Q 16.5 51.421875 16.5 36.375 
Q 16.5 21.390625 20.328125 13.890625 
Q 24.171875 6.390625 31.78125 6.390625 
Q 39.453125 6.390625 43.28125 13.890625 
Q 47.125 21.390625 47.125 36.375 
Q 47.125 51.421875 43.28125 58.90625 
Q 39.453125 66.40625 31.78125 66.40625 
z
M 31.78125 74.21875 
Q 44.046875 74.21875 50.515625 64.515625 
Q 56.984375 54.828125 56.984375 36.375 
Q 56.984375 17.96875 50.515625 8.265625 
Q 44.046875 -1.421875 31.78125 -1.421875 
Q 19.53125 -1.421875 13.0625 8.265625 
Q 6.59375 17.96875 6.59375 36.375 
Q 6.59375 54.828125 13.0625 64.515625 
Q 19.53125 74.21875 31.78125 74.21875 
z
" id="DejaVuSans-30"/>
      </defs>
      <g transform="translate(49.682244 235.538437)scale(0.1 -0.1)">
       <use xlink:href="#DejaVuSans-30"/>
      </g>
     </g>
    </g>
    <g id="xtick_2">
     <g id="line2d_2">
      <g>
       <use style="stroke:#000000;stroke-width:0.8;" x="113.736222" xlink:href="#m119f16d5ee" y="220.94"/>
      </g>
     </g>
     <g id="text_2">
      <!-- 1 -->
      <defs>
       <path d="M 12.40625 8.296875 
L 28.515625 8.296875 
L 28.515625 63.921875 
L 10.984375 60.40625 
L 10.984375 69.390625 
L 28.421875 72.90625 
L 38.28125 72.90625 
L 38.28125 8.296875 
L 54.390625 8.296875 
L 54.390625 0 
L 12.40625 0 
z
" id="DejaVuSans-31"/>
      </defs>
      <g transform="translate(110.554972 235.538437)scale(0.1 -0.1)">
       <use xlink:href="#DejaVuSans-31"/>
      </g>
     </g>
    </g>
    <g id="xtick_3">
     <g id="line2d_3">
      <g>
       <use style="stroke:#000000;stroke-width:0.8;" x="174.608949" xlink:href="#m119f16d5ee" y="220.94"/>
      </g>
     </g>
     <g id="text_3">
      <!-- 2 -->
      <defs>
       <path d="M 19.1875 8.296875 
L 53.609375 8.296875 
L 53.609375 0 
L 7.328125 0 
L 7.328125 8.296875 
Q 12.9375 14.109375 22.625 23.890625 
Q 32.328125 33.6875 34.8125 36.53125 
Q 39.546875 41.84375 41.421875 45.53125 
Q 43.3125 49.21875 43.3125 52.78125 
Q 43.3125 58.59375 39.234375 62.25 
Q 35.15625 65.921875 28.609375 65.921875 
Q 23.96875 65.921875 18.8125 64.3125 
Q 13.671875 62.703125 7.8125 59.421875 
L 7.8125 69.390625 
Q 13.765625 71.78125 18.9375 73 
Q 24.125 74.21875 28.421875 74.21875 
Q 39.75 74.21875 46.484375 68.546875 
Q 53.21875 62.890625 53.21875 53.421875 
Q 53.21875 48.921875 51.53125 44.890625 
Q 49.859375 40.875 45.40625 35.40625 
Q 44.1875 33.984375 37.640625 27.21875 
Q 31.109375 20.453125 19.1875 8.296875 
z
" id="DejaVuSans-32"/>
      </defs>
      <g transform="translate(171.427699 235.538437)scale(0.1 -0.1)">
       <use xlink:href="#DejaVuSans-32"/>
      </g>
     </g>
    </g>
    <g id="xtick_4">
     <g id="line2d_4">
      <g>
       <use style="stroke:#000000;stroke-width:0.8;" x="235.481676" xlink:href="#m119f16d5ee" y="220.94"/>
      </g>
     </g>
     <g id="text_4">
      <!-- 3 -->
      <defs>
       <path d="M 40.578125 39.3125 
Q 47.65625 37.796875 51.625 33 
Q 55.609375 28.21875 55.609375 21.1875 
Q 55.609375 10.40625 48.1875 4.484375 
Q 40.765625 -1.421875 27.09375 -1.421875 
Q 22.515625 -1.421875 17.65625 -0.515625 
Q 12.796875 0.390625 7.625 2.203125 
L 7.625 11.71875 
Q 11.71875 9.328125 16.59375 8.109375 
Q 21.484375 6.890625 26.8125 6.890625 
Q 36.078125 6.890625 40.9375 10.546875 
Q 45.796875 14.203125 45.796875 21.1875 
Q 45.796875 27.640625 41.28125 31.265625 
Q 36.765625 34.90625 28.71875 34.90625 
L 20.21875 34.90625 
L 20.21875 43.015625 
L 29.109375 43.015625 
Q 36.375 43.015625 40.234375 45.921875 
Q 44.09375 48.828125 44.09375 54.296875 
Q 44.09375 59.90625 40.109375 62.90625 
Q 36.140625 65.921875 28.71875 65.921875 
Q 24.65625 65.921875 20.015625 65.03125 
Q 15.375 64.15625 9.8125 62.3125 
L 9.8125 71.09375 
Q 15.4375 72.65625 20.34375 73.4375 
Q 25.25 74.21875 29.59375 74.21875 
Q 40.828125 74.21875 47.359375 69.109375 
Q 53.90625 64.015625 53.90625 55.328125 
Q 53.90625 49.265625 50.4375 45.09375 
Q 46.96875 40.921875 40.578125 39.3125 
z
" id="DejaVuSans-33"/>
      </defs>
      <g transform="translate(232.300426 235.538437)scale(0.1 -0.1)">
       <use xlink:href="#DejaVuSans-33"/>
      </g>
     </g>
    </g>
    <g id="xtick_5">
     <g id="line2d_5">
      <g>
       <use style="stroke:#000000;stroke-width:0.8;" x="296.354403" xlink:href="#m119f16d5ee" y="220.94"/>
      </g>
     </g>
     <g id="text_5">
      <!-- 4 -->
      <defs>
       <path d="M 37.796875 64.3125 
L 12.890625 25.390625 
L 37.796875 25.390625 
z
M 35.203125 72.90625 
L 47.609375 72.90625 
L 47.609375 25.390625 
L 58.015625 25.390625 
L 58.015625 17.1875 
L 47.609375 17.1875 
L 47.609375 0 
L 37.796875 0 
L 37.796875 17.1875 
L 4.890625 17.1875 
L 4.890625 26.703125 
z
" id="DejaVuSans-34"/>
      </defs>
      <g transform="translate(293.173153 235.538437)scale(0.1 -0.1)">
       <use xlink:href="#DejaVuSans-34"/>
      </g>
     </g>
    </g>
    <g id="xtick_6">
     <g id="line2d_6">
      <g>
       <use style="stroke:#000000;stroke-width:0.8;" x="357.227131" xlink:href="#m119f16d5ee" y="220.94"/>
      </g>
     </g>
     <g id="text_6">
      <!-- 5 -->
      <defs>
       <path d="M 10.796875 72.90625 
L 49.515625 72.90625 
L 49.515625 64.59375 
L 19.828125 64.59375 
L 19.828125 46.734375 
Q 21.96875 47.46875 24.109375 47.828125 
Q 26.265625 48.1875 28.421875 48.1875 
Q 40.625 48.1875 47.75 41.5 
Q 54.890625 34.8125 54.890625 23.390625 
Q 54.890625 11.625 47.5625 5.09375 
Q 40.234375 -1.421875 26.90625 -1.421875 
Q 22.3125 -1.421875 17.546875 -0.640625 
Q 12.796875 0.140625 7.71875 1.703125 
L 7.71875 11.625 
Q 12.109375 9.234375 16.796875 8.0625 
Q 21.484375 6.890625 26.703125 6.890625 
Q 35.15625 6.890625 40.078125 11.328125 
Q 45.015625 15.765625 45.015625 23.390625 
Q 45.015625 31 40.078125 35.4375 
Q 35.15625 39.890625 26.703125 39.890625 
Q 22.75 39.890625 18.8125 39.015625 
Q 14.890625 38.140625 10.796875 36.28125 
z
" id="DejaVuSans-35"/>
      </defs>
      <g transform="translate(354.045881 235.538437)scale(0.1 -0.1)">
       <use xlink:href="#DejaVuSans-35"/>
      </g>
     </g>
    </g>
   </g>
   <g id="matplotlib.axis_2">
    <g id="ytick_1">
     <g id="line2d_7">
      <defs>
       <path d="M 0 0 
L -3.5 0 
" id="mbf59f8a8c4" style="stroke:#000000;stroke-width:0.8;"/>
      </defs>
      <g>
       <use style="stroke:#000000;stroke-width:0.8;" x="37.645313" xlink:href="#mbf59f8a8c4" y="217.235711"/>
      </g>
     </g>
     <g id="text_7">
      <!-- −0.75 -->
      <defs>
       <path d="M 10.59375 35.5 
L 73.1875 35.5 
L 73.1875 27.203125 
L 10.59375 27.203125 
z
" id="DejaVuSans-2212"/>
       <path d="M 10.6875 12.40625 
L 21 12.40625 
L 21 0 
L 10.6875 0 
z
" id="DejaVuSans-2e"/>
       <path d="M 8.203125 72.90625 
L 55.078125 72.90625 
L 55.078125 68.703125 
L 28.609375 0 
L 18.3125 0 
L 43.21875 64.59375 
L 8.203125 64.59375 
z
" id="DejaVuSans-37"/>
      </defs>
      <g transform="translate(0 221.03493)scale(0.1 -0.1)">
       <use xlink:href="#DejaVuSans-2212"/>
       <use x="83.789062" xlink:href="#DejaVuSans-30"/>
       <use x="147.412109" xlink:href="#DejaVuSans-2e"/>
       <use x="179.199219" xlink:href="#DejaVuSans-37"/>
       <use x="242.822266" xlink:href="#DejaVuSans-35"/>
      </g>
     </g>
    </g>
    <g id="ytick_2">
     <g id="line2d_8">
      <g>
       <use style="stroke:#000000;stroke-width:0.8;" x="37.645313" xlink:href="#mbf59f8a8c4" y="188.113986"/>
      </g>
     </g>
     <g id="text_8">
      <!-- −0.50 -->
      <g transform="translate(0 191.913205)scale(0.1 -0.1)">
       <use xlink:href="#DejaVuSans-2212"/>
       <use x="83.789062" xlink:href="#DejaVuSans-30"/>
       <use x="147.412109" xlink:href="#DejaVuSans-2e"/>
       <use x="179.199219" xlink:href="#DejaVuSans-35"/>
       <use x="242.822266" xlink:href="#DejaVuSans-30"/>
      </g>
     </g>
    </g>
    <g id="ytick_3">
     <g id="line2d_9">
      <g>
       <use style="stroke:#000000;stroke-width:0.8;" x="37.645313" xlink:href="#mbf59f8a8c4" y="158.992261"/>
      </g>
     </g>
     <g id="text_9">
      <!-- −0.25 -->
      <g transform="translate(0 162.79148)scale(0.1 -0.1)">
       <use xlink:href="#DejaVuSans-2212"/>
       <use x="83.789062" xlink:href="#DejaVuSans-30"/>
       <use x="147.412109" xlink:href="#DejaVuSans-2e"/>
       <use x="179.199219" xlink:href="#DejaVuSans-32"/>
       <use x="242.822266" xlink:href="#DejaVuSans-35"/>
      </g>
     </g>
    </g>
    <g id="ytick_4">
     <g id="line2d_10">
      <g>
       <use style="stroke:#000000;stroke-width:0.8;" x="37.645313" xlink:href="#mbf59f8a8c4" y="129.870536"/>
      </g>
     </g>
     <g id="text_10">
      <!-- 0.00 -->
      <g transform="translate(8.379688 133.669755)scale(0.1 -0.1)">
       <use xlink:href="#DejaVuSans-30"/>
       <use x="63.623047" xlink:href="#DejaVuSans-2e"/>
       <use x="95.410156" xlink:href="#DejaVuSans-30"/>
       <use x="159.033203" xlink:href="#DejaVuSans-30"/>
      </g>
     </g>
    </g>
    <g id="ytick_5">
     <g id="line2d_11">
      <g>
       <use style="stroke:#000000;stroke-width:0.8;" x="37.645313" xlink:href="#mbf59f8a8c4" y="100.748811"/>
      </g>
     </g>
     <g id="text_11">
      <!-- 0.25 -->
      <g transform="translate(8.379688 104.54803)scale(0.1 -0.1)">
       <use xlink:href="#DejaVuSans-30"/>
       <use x="63.623047" xlink:href="#DejaVuSans-2e"/>
       <use x="95.410156" xlink:href="#DejaVuSans-32"/>
       <use x="159.033203" xlink:href="#DejaVuSans-35"/>
      </g>
     </g>
    </g>
    <g id="ytick_6">
     <g id="line2d_12">
      <g>
       <use style="stroke:#000000;stroke-width:0.8;" x="37.645313" xlink:href="#mbf59f8a8c4" y="71.627086"/>
      </g>
     </g>
     <g id="text_12">
      <!-- 0.50 -->
      <g transform="translate(8.379688 75.426305)scale(0.1 -0.1)">
       <use xlink:href="#DejaVuSans-30"/>
       <use x="63.623047" xlink:href="#DejaVuSans-2e"/>
       <use x="95.410156" xlink:href="#DejaVuSans-35"/>
       <use x="159.033203" xlink:href="#DejaVuSans-30"/>
      </g>
     </g>
    </g>
    <g id="ytick_7">
     <g id="line2d_13">
      <g>
       <use style="stroke:#000000;stroke-width:0.8;" x="37.645313" xlink:href="#mbf59f8a8c4" y="42.505361"/>
      </g>
     </g>
     <g id="text_13">
      <!-- 0.75 -->
      <g transform="translate(8.379688 46.30458)scale(0.1 -0.1)">
       <use xlink:href="#DejaVuSans-30"/>
       <use x="63.623047" xlink:href="#DejaVuSans-2e"/>
       <use x="95.410156" xlink:href="#DejaVuSans-37"/>
       <use x="159.033203" xlink:href="#DejaVuSans-35"/>
      </g>
     </g>
    </g>
    <g id="ytick_8">
     <g id="line2d_14">
      <g>
       <use style="stroke:#000000;stroke-width:0.8;" x="37.645313" xlink:href="#mbf59f8a8c4" y="13.383636"/>
      </g>
     </g>
     <g id="text_14">
      <!-- 1.00 -->
      <g transform="translate(8.379688 17.182855)scale(0.1 -0.1)">
       <use xlink:href="#DejaVuSans-31"/>
       <use x="63.623047" xlink:href="#DejaVuSans-2e"/>
       <use x="95.410156" xlink:href="#DejaVuSans-30"/>
       <use x="159.033203" xlink:href="#DejaVuSans-30"/>
      </g>
     </g>
    </g>
   </g>
   <g id="line2d_15">
    <path clip-path="url(#pcb92e00e92)" d="M 52.863494 13.383636 
L 58.950767 13.383636 
L 65.03804 13.383636 
L 71.125313 13.383636 
L 77.212585 13.383636 
L 83.299858 13.383636 
L 89.387131 13.383636 
L 95.474403 13.383636 
L 101.561676 13.383636 
L 107.648949 13.383636 
L 113.736222 13.383636 
L 119.823494 13.383636 
L 125.910767 13.383636 
L 131.99804 13.383636 
L 138.085312 13.383636 
L 144.172585 13.383636 
L 150.259858 13.383636 
L 156.347131 13.383636 
L 162.434403 13.383636 
L 168.521676 13.383636 
L 174.608949 13.383636 
L 180.696222 13.383636 
L 186.783494 13.383636 
L 192.870767 13.383636 
L 198.95804 13.383636 
L 205.045313 13.383636 
L 211.132585 13.383636 
L 217.219858 13.383636 
L 223.307131 13.383636 
L 229.394403 13.383636 
L 235.481676 13.383636 
L 241.568949 13.383636 
L 247.656222 13.383636 
L 253.743494 13.383636 
L 259.830767 13.383636 
L 265.91804 13.383636 
L 272.005313 13.383636 
L 278.092585 13.383636 
L 284.179858 13.383636 
L 290.267131 13.383636 
L 296.354403 13.383636 
L 302.441676 13.383636 
L 308.528949 13.383636 
L 314.616222 13.383636 
L 320.703494 13.383636 
L 326.790767 13.383636 
L 332.87804 13.383636 
L 338.965313 13.383636 
L 345.052585 13.383636 
L 351.139858 13.383636 
L 357.227131 13.383636 
" style="fill:none;stroke:#1f77b4;stroke-linecap:square;stroke-width:1.5;"/>
   </g>
   <g id="line2d_16">
    <path clip-path="url(#pcb92e00e92)" d="M 52.863494 13.383636 
L 58.950767 13.401588 
L 65.03804 13.530447 
L 71.125313 13.866543 
L 77.212585 14.495765 
L 83.299858 15.493358 
L 89.387131 16.924397 
L 95.474403 18.845931 
L 101.561676 21.300954 
L 107.648949 24.312339 
L 113.736222 27.90995 
L 119.823494 32.096538 
L 125.910767 36.876098 
L 131.99804 42.23606 
L 138.085312 48.159053 
L 144.172585 54.615126 
L 150.259858 61.563921 
L 156.347131 68.956353 
L 162.434403 76.746786 
L 168.521676 84.878449 
L 174.608949 93.280991 
L 180.696222 101.893312 
L 186.783494 110.639936 
L 192.870767 119.441615 
L 198.95804 128.230693 
L 205.045313 136.923583 
L 211.132585 145.453457 
L 217.219858 153.743687 
L 223.307131 161.718773 
L 229.394403 169.305467 
L 235.481676 176.432773 
L 241.568949 183.037066 
L 247.656222 189.057846 
L 253.743494 194.44071 
L 259.830767 199.136682 
L 265.91804 203.102657 
L 272.005313 206.303449 
L 278.092585 208.708158 
L 284.179858 210.296731 
L 290.267131 211.056364 
L 296.354403 210.979181 
L 302.441676 210.071325 
L 308.528949 208.341822 
L 314.616222 205.809637 
L 320.703494 202.502638 
L 326.790767 198.45565 
L 332.87804 193.709314 
L 338.965313 188.313173 
L 345.052585 182.323857 
L 351.139858 175.799539 
L 357.227131 168.810509 
" style="fill:none;stroke:#ff7f0e;stroke-linecap:square;stroke-width:1.5;"/>
   </g>
   <g id="line2d_17">
    <path clip-path="url(#pcb92e00e92)" d="M 52.863494 13.383636 
L 58.950767 13.455585 
L 65.03804 13.964646 
L 71.125313 15.283703 
L 77.212585 17.720667 
L 83.299858 21.498535 
L 89.387131 26.762671 
L 95.474403 33.581417 
L 101.561676 41.924449 
L 107.648949 51.691493 
L 113.736222 62.710278 
L 119.823494 74.706872 
L 125.910767 87.351932 
L 131.99804 100.281766 
L 138.085312 113.114612 
L 144.172585 125.462209 
L 150.259858 136.942096 
L 156.347131 147.199969 
L 162.434403 155.915714 
L 168.521676 162.822393 
L 174.608949 167.712352 
L 180.696222 170.460375 
L 186.783494 171.016571 
L 192.870767 169.41577 
L 198.95804 165.770586 
L 205.045313 160.267144 
L 211.132585 153.165571 
L 217.219858 144.778755 
L 223.307131 135.494514 
L 229.394403 125.713025 
L 235.481676 115.837316 
L 241.568949 106.284326 
L 247.656222 97.460929 
L 253.743494 89.737668 
L 259.830767 83.442154 
L 265.91804 78.841209 
L 272.005313 76.133135 
L 278.092585 75.439307 
L 284.179858 76.799843 
L 290.267131 80.171526 
L 296.354403 85.430337 
L 302.441676 92.378787 
L 308.528949 100.748601 
L 314.616222 110.206065 
L 320.703494 120.379431 
L 326.790767 130.865763 
L 332.87804 141.259996 
L 338.965313 151.157149 
L 345.052585 160.166195 
L 351.139858 167.929577 
L 357.227131 174.139779 
" style="fill:none;stroke:#2ca02c;stroke-linecap:square;stroke-width:1.5;"/>
   </g>
   <g id="line2d_18">
    <path clip-path="url(#pcb92e00e92)" d="M 52.863494 13.383636 
L 58.950767 13.544996 
L 65.03804 14.679854 
L 71.125313 17.563527 
L 77.212585 22.747339 
L 83.299858 30.512991 
L 89.387131 40.836739 
L 95.474403 53.40627 
L 101.561676 67.664527 
L 107.648949 82.799854 
L 113.736222 97.88011 
L 119.823494 111.971516 
L 125.910767 124.192775 
L 131.99804 133.782663 
L 138.085312 140.180372 
L 144.172585 143.089329 
L 150.259858 142.494186 
L 156.347131 138.665521 
L 162.434403 132.14491 
L 168.521676 123.703249 
L 174.608949 114.254468 
L 180.696222 104.78621 
L 186.783494 96.278991 
L 192.870767 89.615822 
L 198.95804 85.504761 
L 205.045313 84.411743 
L 211.132585 86.524676 
L 217.219858 91.739729 
L 223.307131 99.66056 
L 229.394403 109.64237 
L 235.481676 120.853075 
L 241.568949 132.34797 
L 247.656222 143.151704 
L 253.743494 152.343507 
L 259.830767 159.141529 
L 265.91804 162.975293 
L 272.005313 163.536502 
L 278.092585 160.805506 
L 284.179858 155.053046 
L 290.267131 146.817019 
L 296.354403 136.855275 
L 302.441676 126.077888 
L 308.528949 115.466417 
L 314.616222 105.984817 
L 320.703494 98.494678 
L 326.790767 93.680098 
L 332.87804 91.9878 
L 338.965313 93.582297 
L 345.052585 98.328264 
L 351.139858 105.800493 
L 357.227131 115.341205 
" style="fill:none;stroke:#d62728;stroke-linecap:square;stroke-width:1.5;"/>
   </g>
   <g id="patch_3">
    <path d="M 37.645313 220.94 
L 37.645313 3.5 
" style="fill:none;stroke:#000000;stroke-linecap:square;stroke-linejoin:miter;stroke-width:0.8;"/>
   </g>
   <g id="patch_4">
    <path d="M 372.445312 220.94 
L 372.445312 3.5 
" style="fill:none;stroke:#000000;stroke-linecap:square;stroke-linejoin:miter;stroke-width:0.8;"/>
   </g>
   <g id="patch_5">
    <path d="M 37.645313 220.94 
L 372.445313 220.94 
" style="fill:none;stroke:#000000;stroke-linecap:square;stroke-linejoin:miter;stroke-width:0.8;"/>
   </g>
   <g id="patch_6">
    <path d="M 37.645313 3.5 
L 372.445313 3.5 
" style="fill:none;stroke:#000000;stroke-linecap:square;stroke-linejoin:miter;stroke-width:0.8;"/>
   </g>
  </g>
 </g>
 <defs>
  <clipPath id="pcb92e00e92">
   <rect height="217.44" width="334.8" x="37.645313" y="3.5"/>
  </clipPath>
 </defs>
</svg>
